<svg id="Group_1868" data-name="Group 1868" xmlns="http://www.w3.org/2000/svg" width="33.164" height="33.112" viewBox="0 0 33.164 33.112">
  <g id="icons" transform="translate(0 0)">
    <g id="user">
      <ellipse id="Ellipse_68" data-name="Ellipse 68" cx="8.278" cy="9.933" rx="8.278" ry="9.933" transform="translate(8.304)" fill="#2a4153"/>
      <path id="Path_229" data-name="Path 229" d="M34.791,21.945a15.088,15.088,0,0,0-7.947-6.953,3.707,3.707,0,0,0-2.98.166,10.163,10.163,0,0,1-10.6,0,3.726,3.726,0,0,0-2.98,0A15.088,15.088,0,0,0,2.342,22.11C1.183,24.263,3,26.746,5.487,26.746H31.645A3.353,3.353,0,0,0,34.791,21.945Z" transform="translate(-1.984 6.366)" fill="#2a4153"/>
    </g>
  </g>
</svg>
