<svg xmlns="http://www.w3.org/2000/svg" width="43.315" height="43.315" viewBox="0 0 43.315 43.315">
  <path id="Path_521" data-name="Path 521" d="M47.315,7.839V12.4H40.475v6.839H35.916V12.4H29.077V7.839h6.839V1h4.559V7.839ZM27.937,23.8a3.42,3.42,0,1,0-3.42-3.42A3.421,3.421,0,0,0,27.937,23.8Zm7.979,7.373-1.169-1.3a4.559,4.559,0,0,0-6.784,0l-1.493,1.664L15.4,19.238l-6.839,7.6V12.4H24.517V7.839H8.559A4.558,4.558,0,0,0,4,12.4V39.755a4.558,4.558,0,0,0,4.559,4.559H35.916a4.558,4.558,0,0,0,4.559-4.559V23.8H35.916Z" transform="translate(-4 -1)" fill="#536573"/>
</svg>
