<svg xmlns="http://www.w3.org/2000/svg" width="40.366" height="51.665" viewBox="0 0 40.366 51.665">
  <g id="Group_1253" data-name="Group 1253" transform="translate(11232.475 8043.864)">
    <path id="Path_376" data-name="Path 376" d="M5,0H31a5,5,0,0,1,5,5l1.767,28.055c0,2.761,1.425,5.959-6.767,7.945A57.466,57.466,0,0,1,5,41c-8.369-1.986-7.476-7.945-7.476-7.945L0,5A5,5,0,0,1,5,0Z" transform="translate(-11229.971 -8034.689)" fill="#fff"/>
    <path id="Path_377" data-name="Path 377" d="M-6933.725-3011.368c1.412-7.608,6.135-12.838,11.24-12.252,1.751.19,3.827,1.495,5.657,4.141a26.175,26.175,0,0,1,3.358,8.11C-6911.326-3003.1-6935.152-3003.684-6933.725-3011.368Z" transform="translate(-4288.731 -5018.693)" fill="none" stroke="#fff" stroke-width="3"/>
  </g>
</svg>
