<svg xmlns="http://www.w3.org/2000/svg" viewBox="0 0 29.66 26.49"><defs><style>.cls-1{fill:#2a4153;}</style></defs><g id="Layer_2" data-name="Layer 2"><g id="Layer_1-2" data-name="Layer 1"><path class="cls-1" d="M2.64,9.52H1.14a1,1,0,0,1-1-1.65C1.56,5.44,3,3,4.34.59a1.1,1.1,0,0,1,1-.59H24.29a1.1,1.1,0,0,1,1,.59l4.17,7.3a1.05,1.05,0,0,1-1,1.63H27V23.21a3.15,3.15,0,0,1-2.4,3.17,3.8,3.8,0,0,1-.89.1H5.93a3.17,3.17,0,0,1-3.28-3.31q0-6.6,0-13.19Zm2.1,0V23.15A1.09,1.09,0,0,0,6,24.39H23.67a1.09,1.09,0,0,0,1.24-1.24V9.54Zm22-2.13a1.1,1.1,0,0,0,0-.11q-1.43-2.52-2.87-5a.48.48,0,0,0-.35-.16l-17.35,0a.43.43,0,0,0-.42.25Q4.39,4.73,3,7.11l-.15.3Z"/><path class="cls-1" d="M14.81,20.66H9.71a1.08,1.08,0,0,1-1.23-1.22v-5.5a1.07,1.07,0,0,1,1.19-1.21H20a1.08,1.08,0,0,1,1.2,1.21v5.5A1.08,1.08,0,0,1,20,20.66ZM10.6,14.84v3.7h8.45v-3.7Z"/></g></g></svg>