<svg xmlns="http://www.w3.org/2000/svg" width="32.485" height="31.01" viewBox="0 0 32.485 31.01">
  <g id="Group_1870" data-name="Group 1870" transform="translate(-64.407 -1273.495)">
    <g id="discount-svgrepo-com" transform="translate(64.406 1268.742)">
      <path id="Path_510" data-name="Path 510" d="M32.158,19.448l-3.21-3.318.647-4.572a1.164,1.164,0,0,0-.952-1.31l-4.548-.8L21.931,5.372a1.164,1.164,0,0,0-1.54-.5L16.243,6.9,12.095,4.872a1.164,1.164,0,0,0-1.54.5L8.391,9.451l-4.548.8a1.164,1.164,0,0,0-.952,1.31l.647,4.572L.328,19.448a1.164,1.164,0,0,0,0,1.619l3.21,3.318-.647,4.572a1.164,1.164,0,0,0,.952,1.31l4.548.8,2.164,4.078a1.164,1.164,0,0,0,1.54.5l4.148-2.028,4.149,2.028a1.163,1.163,0,0,0,1.539-.5l2.164-4.078,4.548-.8a1.164,1.164,0,0,0,.952-1.31l-.647-4.572,3.211-3.318A1.164,1.164,0,0,0,32.158,19.448Z" fill="#2a4153"/>
    </g>
    <g id="Group_1869" data-name="Group 1869" transform="translate(-28 6)">
      <path id="Path_511" data-name="Path 511" d="M65.476,68.3a2.819,2.819,0,1,0-2.819-2.819A2.822,2.822,0,0,0,65.476,68.3Zm0-3.775a.956.956,0,1,1-.956.957A.958.958,0,0,1,65.476,64.52Z" transform="translate(39.475 1213.826)" fill="#fff"/>
      <path id="Path_512" data-name="Path 512" d="M78.177,66.929a.931.931,0,0,0-1.317,0l-9.929,9.929a.931.931,0,0,0,1.317,1.317l9.929-9.929A.931.931,0,0,0,78.177,66.929Z" transform="translate(36.095 1210.448)" fill="#fff"/>
      <path id="Path_513" data-name="Path 513" d="M113.121,110.3a2.819,2.819,0,1,0,2.819,2.819A2.822,2.822,0,0,0,113.121,110.3Zm0,3.775a.956.956,0,1,1,.957-.957A.957.957,0,0,1,113.121,114.076Z" transform="translate(-0.774 1173.578)" fill="#fff"/>
    </g>
  </g>
</svg>
