<svg xmlns="http://www.w3.org/2000/svg" viewBox="0 0 43.88 50.37"><defs><style>.cls-1{fill:#2a4153;}</style></defs><g id="Layer_2" data-name="Layer 2"><g id="Layer_1-2" data-name="Layer 1"><path id="_4737445_alarm_alert_bell_notification_ring_icon" data-name=" 4737445 alarm alert bell notification ring icon" class="cls-1" d="M40.17,30l-1-.77a2.2,2.2,0,0,1-.82-1.71V18.6A16.45,16.45,0,0,0,25.13,2.47a3.29,3.29,0,0,0-6.37,0A16.47,16.47,0,0,0,5.48,18.6v8.87a2.2,2.2,0,0,1-.82,1.71l-1,.77A9.85,9.85,0,0,0,0,37.63v1.82a4.38,4.38,0,0,0,4.39,4.38h9.06a8.77,8.77,0,0,0,17,0h9.07a4.39,4.39,0,0,0,4.39-4.38v-1.8A9.89,9.89,0,0,0,40.17,30Z"/></g></g></svg>