<svg xmlns="http://www.w3.org/2000/svg" viewBox="0 0 31.93 28.34"><defs><style>.cls-1{fill:#2a4153;}</style></defs><g id="Layer_2" data-name="Layer 2"><g id="Layer_1-2" data-name="Layer 1"><path class="cls-1" d="M0,9.12c.06-.29.1-.57.17-.85A6.2,6.2,0,0,1,6.28,3.41c3.43,0,6.86,0,10.3,0a1.24,1.24,0,0,1,1.25.76,1.18,1.18,0,0,1-.21,1.3,1.3,1.3,0,0,1-1,.41H6.26A3.73,3.73,0,0,0,2.67,8.5a3.53,3.53,0,0,0-.18,1.07c0,5,0,10,0,15a1.23,1.23,0,0,0,.74,1.2,1.21,1.21,0,0,0,1.41-.24c.61-.55,1.24-1.08,1.83-1.65a1.78,1.78,0,0,1,1.3-.49c4.27,0,8.54,0,12.81,0a3.63,3.63,0,0,0,3.54-2.2,4.21,4.21,0,0,0,.34-1.5c.05-.91,0-1.83,0-2.74a1.24,1.24,0,0,1,1.23-1.33,1.22,1.22,0,0,1,1.24,1.34c0,1.13,0,2.26-.06,3.39A6.14,6.14,0,0,1,22,25.7a7.81,7.81,0,0,1-1.45.12H8.29a.78.78,0,0,0-.58.22c-.46.43-.94.85-1.41,1.27a3.61,3.61,0,0,1-3.77.79A3.59,3.59,0,0,1,.06,25.16.84.84,0,0,0,0,25Z"/><path class="cls-1" d="M13.59,16.63a9.61,9.61,0,0,1,2.9-6.47l9-9a3.57,3.57,0,0,1,3.72-1,3.53,3.53,0,0,1,2.59,2.77,3.46,3.46,0,0,1-.95,3.36c-3.13,3.16-6.26,6.32-9.44,9.43A9.23,9.23,0,0,1,15,18.34a1.23,1.23,0,0,1-1.39-1.4Zm2.54-1,.1.06.18,0a7.11,7.11,0,0,0,3.51-1.92L29,4.69a1.26,1.26,0,1,0-1.78-1.78C24.2,6,21.14,9,18.13,12a9.19,9.19,0,0,0-1.33,1.87A12.79,12.79,0,0,0,16.13,15.67Z"/><path class="cls-1" d="M8.09,13.35H6.32A1.23,1.23,0,0,1,5,12.15a1.26,1.26,0,0,1,1.3-1.26H10A1.24,1.24,0,0,1,11.21,12a1.21,1.21,0,0,1-1,1.3,4.49,4.49,0,0,1-.9,0Z"/><path class="cls-1" d="M8.1,18.34c-.6,0-1.2,0-1.81,0A1.22,1.22,0,0,1,5,17.15a1.25,1.25,0,0,1,1.26-1.27c.53,0,1.06,0,1.59,0,.7,0,1.39,0,2.09,0a1.22,1.22,0,0,1,1.16,1.73,1.15,1.15,0,0,1-1.1.73C9.37,18.35,8.73,18.34,8.1,18.34Z"/></g></g></svg>