<svg xmlns="http://www.w3.org/2000/svg" width="32.703" height="31.223" viewBox="0 0 32.703 31.223">
  <g id="Group_1923" data-name="Group 1923" transform="translate(-305.266 -2151)">
    <g id="buy-svgrepo-com" transform="translate(300.266 2144.976)">
      <g id="Group_1922" data-name="Group 1922" transform="translate(5 6.025)">
        <g id="Group_1920" data-name="Group 1920">
          <path id="Path_556" data-name="Path 556" d="M18.4,35.759a1.489,1.489,0,1,1-1.489-1.489A1.489,1.489,0,0,1,18.4,35.759Zm16.374-1.489a1.489,1.489,0,1,0,1.489,1.489A1.489,1.489,0,0,0,34.772,34.271ZM10.048,12.529,14.316,32.2a.744.744,0,0,0,.728.586H36.958a.745.745,0,0,0,.744-.744V30.549a.745.745,0,0,0-.744-.744H17.4a.745.745,0,0,1-.728-.588l-4.85-22.6a.742.742,0,0,0-.883-.572l-1.456.313a.745.745,0,0,0-.572.884l.177.826a.744.744,0,0,1-.728.9H5.744A.745.745,0,0,0,5,9.709V11.2a.745.745,0,0,0,.744.744H9.321A.744.744,0,0,1,10.048,12.529Z" transform="translate(-5 -6.025)" fill="#fff"/>
        </g>
        <g id="Group_1921" data-name="Group 1921">
          <path id="Path_557" data-name="Path 557" d="M18.4,35.759a1.489,1.489,0,1,1-1.489-1.489A1.489,1.489,0,0,1,18.4,35.759Zm16.374-1.489a1.489,1.489,0,1,0,1.489,1.489A1.489,1.489,0,0,0,34.772,34.271ZM10.048,12.529,14.316,32.2a.744.744,0,0,0,.728.586H36.958a.745.745,0,0,0,.744-.744V30.549a.745.745,0,0,0-.744-.744H17.4a.745.745,0,0,1-.728-.588l-4.85-22.6a.742.742,0,0,0-.883-.572l-1.456.313a.745.745,0,0,0-.572.884l.177.826a.744.744,0,0,1-.728.9H5.744A.745.745,0,0,0,5,9.709V11.2a.745.745,0,0,0,.744.744H9.321A.744.744,0,0,1,10.048,12.529Z" transform="translate(-5 -6.025)" fill="#fff"/>
        </g>
      </g>
      <path id="Path_558" data-name="Path 558" d="M15.391,25.4H30.572a.745.745,0,0,0,.726-.584l2.647-11.909A.745.745,0,0,0,33.218,12H12.744a.744.744,0,0,0-.726.905l2.647,11.909A.745.745,0,0,0,15.391,25.4Z" transform="translate(3.42 2.919)" fill="#fff"/>
    </g>
  </g>
</svg>
