<svg xmlns="http://www.w3.org/2000/svg" width="30" height="32" viewBox="0 0 30 32">
  <g id="Group_1901" data-name="Group 1901" transform="translate(-60.548 -1575.969)">
    <g id="Group_1899" data-name="Group 1899" transform="translate(89.548 278.969)">
      <g id="Group_1898" data-name="Group 1898" transform="translate(-1649.716 17988)">
        <g id="Ellipse_284" data-name="Ellipse 284" transform="translate(1620.716 -16688)" fill="#fff" stroke="#ed1f23" stroke-width="2">
          <circle cx="14.5" cy="14.5" r="14.5" stroke="none"/>
          <circle cx="14.5" cy="14.5" r="13.5" fill="none"/>
        </g>
        <path id="Path_518" data-name="Path 518" d="M30.793,32.888c.143-.086.226-.126.3-.179,1.105-.733,2.207-1.477,3.319-2.2a.528.528,0,0,0,.275-.5V25.883a.5.5,0,0,0-.262-.478c-1.444-.956-2.884-1.911-4.314-2.881a.368.368,0,0,0-.5,0c-.282.209-.584.4-.916.621.126.1.216.173.312.236,1.4.936,2.8,1.865,4.2,2.8a.936.936,0,1,1-1.069,1.527L28.819,25.5l-2.24-1.493a.95.95,0,0,1,0-1.706c.873-.581,1.749-1.155,2.612-1.746a1.072,1.072,0,0,1,1.327,0q2.748,1.848,5.505,3.674a1.039,1.039,0,0,1,.508.936v5.582a1,1,0,0,1-.468.9q-2.794,1.848-5.582,3.72a1.032,1.032,0,0,1-1.251,0q-2.771-1.872-5.555-3.707a1,1,0,0,1-.491-.913V25.159a.936.936,0,0,1,1.5-.82L30.325,28.1a1.019,1.019,0,0,1,.465.906v3.508Zm-5.721-6.033a1.948,1.948,0,0,0-.04.242v2.987a.551.551,0,0,0,.236.365c1.112.757,2.233,1.5,3.352,2.247.076.05.156.09.272.156V29.683a.5.5,0,0,0-.262-.475c-1.108-.73-2.21-1.47-3.319-2.2C25.271,26.975,25.192,26.931,25.072,26.855Z" transform="translate(1605.414 -16701.209)" fill="#ed1f23"/>
        <g id="Ellipse_283" data-name="Ellipse 283" transform="translate(1637.716 -16691)" fill="#fff" stroke="#ed1f23" stroke-width="1">
          <circle cx="6.5" cy="6.5" r="6.5" stroke="none"/>
          <circle cx="6.5" cy="6.5" r="6" fill="none"/>
        </g>
      </g>
    </g>
    <g id="Group_1900" data-name="Group 1900" transform="translate(56 -6)">
      <path id="Path_520" data-name="Path 520" d="M1775.975-16649.615l4.548,4.549" transform="translate(-1750 18235.998)" fill="none" stroke="#ed1f23" stroke-width="1"/>
      <path id="Path_521" data-name="Path 521" d="M1780.523-16649.615l-4.548,4.549" transform="translate(-1750 18235.998)" fill="none" stroke="#ed1f23" stroke-width="1"/>
    </g>
  </g>
</svg>
