<svg id="cancel-svgrepo-com" xmlns="http://www.w3.org/2000/svg" width="35.815" height="35.05" viewBox="0 0 35.815 35.05">
  <g id="Group_1357" data-name="Group 1357">
    <path id="Path_403" data-name="Path 403" d="M17.908,0A17.7,17.7,0,0,0,0,17.525,17.7,17.7,0,0,0,17.908,35.05,17.7,17.7,0,0,0,35.815,17.525,17.7,17.7,0,0,0,17.908,0Zm0,32.14A14.8,14.8,0,0,1,2.974,17.525,14.8,14.8,0,0,1,17.908,2.91,14.8,14.8,0,0,1,32.841,17.525,14.8,14.8,0,0,1,17.908,32.14Z" fill="#2a4153"/>
    <path id="Path_404" data-name="Path 404" d="M144.576,128.4a1.544,1.544,0,0,0-2.131,0l-5.947,5.567-5.94-5.56a1.544,1.544,0,0,0-2.131,0,1.319,1.319,0,0,0,0,1.995l5.94,5.56-5.94,5.56a1.3,1.3,0,0,0,0,1.995,1.548,1.548,0,0,0,2.131,0l5.94-5.56,5.94,5.56a1.547,1.547,0,0,0,2.131,0,1.319,1.319,0,0,0,0-1.995l-5.94-5.56,5.94-5.56A1.321,1.321,0,0,0,144.576,128.4Z" transform="translate(-118.59 -118.439)" fill="#2a4153"/>
  </g>
</svg>
