<svg width="28.54" height="35.46" xmlns="http://www.w3.org/2000/svg"><g><path d="M5.301 5.42h18.381a3.535 3.535 0 0 1 3.535 3.535l1.25 19.834c0 1.952 1.007 4.213-4.785 5.617a39.105 39.105 0 0 1-9.143 1.053A40.104 40.104 0 0 1 5.3 34.406C-.546 33.018.002 28.887.016 28.79v-.002l1.75-19.834A3.535 3.535 0 0 1 5.301 5.42z" fill="#2a4153" fill-rule="evenodd"/><path d="M9.99 6.004a15.107 15.107 0 0 0-1.403 4.185c-.982 5.286 14.941 5.82 14.403.459a3.036 3.036 0 0 0-.083-.46c-.66-2.54-1.503-4.464-2.348-5.695a10.873 10.873 0 0 0-.33-.457c-1.217-1.59-2.554-2.385-3.696-2.51-2.566-.294-4.995 1.49-6.544 4.478z" stroke="#2a4153" stroke-width="3" fill="none"/></g></svg>