<?xml version="1.0" encoding="utf-8"?>
<!-- Generator: Adobe Illustrator 26.2.1, SVG Export Plug-In . SVG Version: 6.00 Build 0)  -->
<svg version="1.1" id="Layer_1" xmlns="http://www.w3.org/2000/svg" xmlns:xlink="http://www.w3.org/1999/xlink" x="0px" y="0px"
	 viewBox="0 0 28 28" style="enable-background:new 0 0 28 28;" xml:space="preserve">
<style type="text/css">
	.st0{fill:#2B4253;}
</style>
<path id="Path_374" class="st0" d="M21,27.6H7c-1.1,0-2.1-0.4-2.8-1.1c-0.8-0.7-1.1-1.6-1.1-2.6L5,7.6c0.1-1.1,1.1-2,2.4-2h13.3
	c1.3,0,2.3,0.9,2.4,2l1.9,16.2c0.1,2-1.5,3.6-3.7,3.8C21.2,27.6,21.1,27.6,21,27.6z M7.3,7.1c-0.4,0-0.8,0.3-0.8,0.7L4.7,24
	c0,1.2,1,2.1,2.3,2.2c0,0,0,0,0.1,0h14c1.3,0,2.3-0.9,2.3-2.1c0,0,0-0.1,0-0.1L21.5,7.8c0-0.4-0.4-0.7-0.8-0.7L7.3,7.1z"/>
<path id="Path_375" class="st0" d="M17.7,2.2C16.8,1,15.4,0.4,14,0.4H14c-1.4,0-2.8,0.7-3.7,1.9C8.8,4,8.1,6.8,8.5,9.8
	c0,0.4,0.3,0.7,0.7,0.7h0.1c0.4-0.1,0.7-0.4,0.6-0.8c0,0,0,0,0,0c-0.3-2.6,0.3-5,1.4-6.4C12,2.4,12.9,1.9,14,1.9h0
	c1,0,2,0.5,2.7,1.3c1.2,1.4,1.7,3.8,1.4,6.4c0,0.4,0.2,0.8,0.6,0.9h0.1c0.4,0,0.7-0.3,0.7-0.7C19.9,6.8,19.2,4,17.7,2.2z"/>
</svg>
