<svg xmlns="http://www.w3.org/2000/svg" width="26.437" height="35.354" viewBox="0 0 26.437 35.354">
  <g id="Group_462" data-name="Group 462" transform="translate(0 2.504)">
    <path id="Path_288" data-name="Path 288" d="M2.411,0H19.439a3.275,3.275,0,0,1,3.275,3.275l1.157,18.374c0,1.809.933,3.9-4.432,5.2a37.636,37.636,0,0,1-17.028,0c-5.481-1.3-4.9-5.2-4.9-5.2L-.864,3.275A3.275,3.275,0,0,1,2.411,0Z" transform="translate(2.503 5.023)" fill="#fff"/>
    <path id="Path_289" data-name="Path 289" d="M-6933.746-3015.612c.925-4.982,4.018-8.408,7.361-8.024a5.65,5.65,0,0,1,3.705,2.712,17.147,17.147,0,0,1,2.2,5.312C-6919.076-3010.2-6934.681-3010.579-6933.746-3015.612Z" transform="translate(6940.307 3022.665)" fill="none" stroke="#fff" stroke-width="3"/>
  </g>
</svg>
