<svg id="Group_438" data-name="Group 438" xmlns="http://www.w3.org/2000/svg" width="40.44" height="40.434" viewBox="0 0 40.44 40.434">
  <g id="_7148740_category_variety_random_shuffle_icon" data-name="7148740_category_variety_random_shuffle_icon">
    <path id="Path_223" data-name="Path 223" d="M13.943,17.6H4.034A3.788,3.788,0,0,1,.25,13.818V4.033A3.788,3.788,0,0,1,4.034.25h9.908a3.788,3.788,0,0,1,3.783,3.783v9.785A3.788,3.788,0,0,1,13.943,17.6Z" transform="translate(-0.25 -0.25)" fill="#2a4153"/>
    <path id="Path_224" data-name="Path 224" d="M13.984,37.3H4.075A3.789,3.789,0,0,1,.291,33.512V23.728a3.788,3.788,0,0,1,3.784-3.783h9.908a3.788,3.788,0,0,1,3.781,3.783v9.784A3.788,3.788,0,0,1,13.984,37.3Z" transform="translate(-0.243 3.138)" fill="#2a4153"/>
    <path id="Path_225" data-name="Path 225" d="M33.532,37.3H23.623a3.789,3.789,0,0,1-3.784-3.784V23.728a3.788,3.788,0,0,1,3.784-3.783h9.908a3.788,3.788,0,0,1,3.783,3.783v9.784A3.788,3.788,0,0,1,33.532,37.3Z" transform="translate(3.119 3.138)" fill="#2a4153"/>
    <path id="Path_226" data-name="Path 226" d="M28.563,17.6A8.673,8.673,0,1,1,37.3,8.928,8.673,8.673,0,0,1,28.563,17.6Z" transform="translate(3.139 -0.249)" fill="#2a4153"/>
  </g>
</svg>
