<svg xmlns="http://www.w3.org/2000/svg" viewBox="0 0 52.96 54.86"><defs><style>.cls-1{fill:#2a4153;}</style></defs><g id="Layer_2" data-name="Layer 2"><g id="Layer_1-2" data-name="Layer 1"><path class="cls-1" d="M17.71,0c1.07.15,2.16.25,3.22.45a17,17,0,0,1,9.49,4.8,8.68,8.68,0,0,1,2.51,6.34c0,2.59,0,5.18,0,7.77v.7H47.27a5.45,5.45,0,0,1,5.63,4.76,6.77,6.77,0,0,1,.06,1V49.09a5.5,5.5,0,0,1-5.75,5.77H13.56c-1.07,0-1.4-.34-1.4-1.42,0-2.72,0-5.43,0-8.15V44.7c-1.24-.38-2.45-.68-3.61-1.11a14.6,14.6,0,0,1-6.47-4.41,8.73,8.73,0,0,1-2-5.72c0-7.11.1-14.22,0-21.32A9.85,9.85,0,0,1,4.46,3.56,19.1,19.1,0,0,1,13.39.23L15.24,0ZM46.07,52.59c.76,0,1.45,0,2.13-.13a2.86,2.86,0,0,0,1.87-1.16A4.44,4.44,0,0,0,51,48.61c.06-6,0-11.94,0-17.9,0-.19,0-.38,0-.59a1.63,1.63,0,0,0-.21.05,6.67,6.67,0,0,1-3.83,1H14.62V52.51H18.5V47.6a1.11,1.11,0,0,1,.6-1.16,1.08,1.08,0,0,1,1.58,1.05c0,1.44,0,2.89,0,4.34v.69h4.17v-.67c0-1.45,0-2.9,0-4.34,0-.77.41-1.19,1.08-1.18A1,1,0,0,1,27,47.53c0,1.43,0,2.86,0,4.29v.7h4.16c0-.22,0-.41,0-.6V47.47a1,1,0,0,1,.6-1,1.05,1.05,0,0,1,1.54,1c0,1.5,0,3,0,4.5,0,.51.11.69.64.67,1,0,2,0,2.95,0l.61,0v-.63c0-1.48,0-3,0-4.45a1.08,1.08,0,1,1,2.16.1v5h4.17V51.9c0-1.47,0-2.93,0-4.39a1.09,1.09,0,0,1,1.57-1.08,1.15,1.15,0,0,1,.62,1.21ZM12.15,42.34V30.57c0-1.34.27-1.61,1.6-1.61H47.39a3.32,3.32,0,0,0,3.11-4.72,3.28,3.28,0,0,0-3.31-2c-10,0-20.1,0-30.16,0a30.51,30.51,0,0,1-5.31-.51,16.36,16.36,0,0,1-9.28-4.83,1,1,0,0,0-.21-.11c0,.19,0,.33,0,.47V33.64a6.21,6.21,0,0,0,1.41,4C5.79,40.34,8.81,41.53,12.15,42.34ZM16.51,2.21a20.22,20.22,0,0,0-6.28.89A13.45,13.45,0,0,0,4,6.76a6.11,6.11,0,0,0-.15,8.57,10.63,10.63,0,0,0,3.7,2.78,21,21,0,0,0,15.85.81,12,12,0,0,0,5.79-3.79,6,6,0,0,0,.11-7.87,10.35,10.35,0,0,0-3.17-2.68A19.39,19.39,0,0,0,16.51,2.21ZM30.73,16.92,26.55,20h4.18Z"/><path class="cls-1" d="M16.5,7.16a6.51,6.51,0,0,1,4,1.23,3.25,3.25,0,0,1,0,5.45,7.14,7.14,0,0,1-8.21-.06,3.22,3.22,0,0,1,0-5.31A6.63,6.63,0,0,1,16.5,7.16Zm0,5.78a4.6,4.6,0,0,0,2.76-.83,1.08,1.08,0,0,0,0-1.88,5,5,0,0,0-5.62-.08,1.09,1.09,0,0,0,0,1.91A4.56,4.56,0,0,0,16.5,12.94Z"/></g></g></svg>