<svg xmlns="http://www.w3.org/2000/svg" width="16" height="16" fill="none" viewBox="0 0 16 16">
    <path fill="#231F20" fill-opacity=".8" d="M9.137 8.21l6.62-6.362c.324-.312.324-.78 0-1.092-.325-.313-.813-.313-1.138 0L8 7.117 1.38.756C1.057.443.57.443.245.756c-.325.312-.325.78 0 1.092L6.863 8.21l-6.62 6.362c-.324.312-.324.78 0 1.093.163.156.366.234.57.234.202 0 .405-.078.568-.234L8 9.303l6.62 6.362c.162.156.365.234.568.234.203 0 .406-.078.568-.234.325-.313.325-.78 0-1.093L9.137 8.21z"/>
</svg>
