<?xml version="1.0" encoding="utf-8"?>
<!-- Generator: Adobe Illustrator 26.5.0, SVG Export Plug-In . SVG Version: 6.00 Build 0)  -->
<svg version="1.1" id="Layer_1" xmlns="http://www.w3.org/2000/svg" xmlns:xlink="http://www.w3.org/1999/xlink" x="0px" y="0px"
	 viewBox="0 0 110.3 53.1" style="enable-background:new 0 0 110.3 53.1;" xml:space="preserve">
<style type="text/css">
	.st0{opacity:0.39;fill-rule:evenodd;clip-rule:evenodd;fill:#FFF8F3;enable-background:new    ;}
	.st1{fill:#B07746;}
	.st2{fill:#C8252B;}
</style>
<g id="Group_2313" transform="translate(-1398 -563)">
	<g id="Group_2320" transform="translate(1398 563)">
		<g id="Group_2313-2" transform="translate(0 0)">
			<g id="Group_2309" transform="translate(0 0)">
				<g id="Group_2301" transform="translate(0 0)">
					<path id="Path_900" class="st0" d="M0,35.4V0h110.3v35.4l-31.8-0.1c0-0.2,0-2.9-0.9-3.3c-0.9-0.4,0.2-1.5-5.3-1.8
						c-6.7,0-6,4.1-11.5,5.5c-1.9-0.3-4-2.1-5.9-2.4c-2,0.3-3.9,2.2-5.9,2.5c-0.8-0.3,0.2-0.5-1.7-0.9c-0.7-0.7-1.5-1.4-2.3-2.1
						c-0.9-0.2-4.4-2.6-6.8-2.7c-1.5-0.1-2.9,0.2-4.3,0.7c-1.5,1-2.3,2.7-2.2,4.5L0,35.4z"/>
					<g id="Group_2300" transform="translate(0 0)">
						<g id="Group_2298" transform="translate(4.111 4.111)">
							<path id="Path_901" class="st1" d="M0,0v27.5h27.7v-0.1H0.5V0.1h101.1v27.2H74.1v0.1h28V0H0z"/>
						</g>
						<g id="Group_2299">
							<path id="Path_902" class="st1" d="M0,0v35.7h31.8v-0.5H1.5V0.5h107.3v34.7H78.2v0.5h32.1V0H0z"/>
						</g>
						<path id="Path_903" class="st1" d="M45.7,34.2c-0.5,0.1-1,0.1-1.6,0c-0.1,0-0.3-0.1-0.4-0.1S43.5,34,43.4,34
							c-0.1,0-0.2-0.1-0.4-0.2l-0.2-0.1l-0.2-0.1c-0.2-0.2-0.4-0.3-0.6-0.6c-0.2-0.2-0.3-0.5-0.4-0.7c-0.2-0.6-0.1-1.1,0.2-1.6
							c0.3-0.5,0.8-0.8,1.3-1c0.5-0.2,1-0.3,1.6-0.4l0.4,0h0.1h0h0.1l0.2,0c0.3,0,0.5,0,0.8,0.1c0.1,0,0.3,0,0.4,0.1l0.4,0.1
							c0.3,0.1,0.5,0.1,0.8,0.2c1,0.3,2,0.7,2.9,1.1c1,0.4,1.9,0.9,2.8,1.4c1.8,1,3.7,2,5.5,2.9c1.8,1,3.7,1.8,5.7,2.5
							c1,0.3,2,0.6,3,0.8c1,0.2,2,0.3,3.1,0.4l0.4,0l0.2,0h0.1h0.1l0.8,0l0.8-0.1c0.2,0,0.5-0.1,0.8-0.1c0.5-0.1,1-0.3,1.5-0.5
							c0.5-0.2,0.9-0.5,1.3-0.8l0.3-0.3c0.1-0.1,0.2-0.2,0.3-0.3c0.2-0.2,0.3-0.4,0.4-0.6c0.1-0.1,0.1-0.2,0.2-0.3l0.1-0.4
							c0-0.1,0.1-0.2,0.1-0.4c0-0.1,0.1-0.2,0.1-0.4c0.1-0.5,0-1-0.1-1.5c0-0.1-0.1-0.2-0.1-0.4s-0.1-0.2-0.2-0.3l-0.2-0.3
							c-0.1-0.1-0.2-0.2-0.2-0.3c-0.3-0.4-0.7-0.7-1.2-0.9c-0.4-0.2-0.9-0.4-1.4-0.5c-0.1,0-0.2,0-0.4-0.1c-0.1,0-0.2,0-0.4,0
							l-0.4,0l-0.2,0l-0.2,0c-0.3,0-0.5,0-0.7,0.1l-0.4,0l-0.1,0l-0.1,0l-0.2,0c-2,0.4-3.9,1.1-5.7,2.2c-1.8,1.1-3.4,2.3-5,3.7
							c-1.6,1.4-3,2.8-4.6,4.2c-0.8,0.7-1.6,1.4-2.5,1.9c-0.9,0.6-1.9,1-3,1.2c-0.6,0.1-1.1,0.1-1.7-0.1c-0.6-0.1-1.1-0.4-1.5-0.8
							c-0.2-0.2-0.4-0.5-0.4-0.8c-0.1-0.3,0-0.6,0.1-0.9c0.1-0.3,0.3-0.5,0.5-0.7c0.2-0.2,0.5-0.3,0.7-0.4c0.1,0,0.3-0.1,0.4-0.1
							l0,0c0,0,0,0,0.1,0l0.1,0l0.2,0l0.1,0h0.1H50c0.1,0,0.3,0,0.4,0c0.5,0.1,1,0.2,1.5,0.5c0.9,0.5,1.7,1.3,2.3,2.1
							c0.3,0.4,0.6,0.8,0.9,1.3c0.3,0.4,0.6,0.9,0.8,1.4c0.5,0.9,1,1.9,1.4,2.8l0,0l0,0.1l-0.1,0.1l-1.7,3.6l-0.5,1.2l-0.6-1.2
							l-1.7-3.6l-0.1-0.1l0-0.1l0,0c0.4-1,0.9-1.9,1.4-2.8c0.2-0.5,0.5-0.9,0.8-1.4c0.3-0.4,0.6-0.9,0.9-1.3
							c0.6-0.8,1.4-1.6,2.3-2.1c0.5-0.3,1-0.4,1.5-0.5c0.1,0,0.3,0,0.4,0h0.2h0.1l0.1,0c0.1,0,0.3,0,0.4,0.1c0.1,0,0.3,0.1,0.4,0.1
							c0.3,0.1,0.5,0.2,0.7,0.4c0.2,0.2,0.4,0.4,0.6,0.7c0.1,0.1,0.1,0.3,0.1,0.5c0,0.2,0,0.3,0,0.5c-0.1,0.3-0.2,0.6-0.4,0.8
							c-0.4,0.4-1,0.7-1.5,0.8l-0.1,0l0,0c0,0,0,0,0,0l-0.1,0l-0.2,0c-0.1,0-0.3,0-0.4,0c-0.3,0-0.6,0-0.8,0
							c-0.5-0.1-1.1-0.2-1.6-0.5c-0.5-0.2-1-0.5-1.4-0.8c-0.9-0.6-1.7-1.3-2.5-2c-1.5-1.4-3-2.9-4.6-4.2c-0.4-0.3-0.8-0.7-1.2-1
							s-0.8-0.6-1.2-0.9c-0.8-0.6-1.7-1.2-2.6-1.7c-1.8-1-3.7-1.8-5.7-2.1c-1-0.2-2-0.2-3,0c-0.5,0.1-1,0.2-1.4,0.5
							c-0.4,0.2-0.8,0.5-1.2,0.9c-0.7,0.8-1,1.8-0.9,2.8c0.1,0.5,0.2,1,0.5,1.4c0.1,0.1,0.1,0.2,0.2,0.3c0.1,0.1,0.2,0.2,0.2,0.3
							c0.1,0.1,0.2,0.2,0.3,0.3l0.3,0.3c0.4,0.3,0.8,0.6,1.3,0.8c0.5,0.2,1,0.4,1.5,0.5c1,0.2,2,0.3,3.1,0.2c0.3,0,0.5,0,0.8-0.1
							s0.5,0,0.8-0.1s0.5-0.1,0.8-0.1l0.8-0.1c1-0.2,2-0.5,3-0.8c2-0.7,3.9-1.5,5.7-2.5c1.8-0.9,3.7-2,5.5-2.9
							c0.9-0.5,1.9-1,2.8-1.4c1-0.4,1.9-0.8,2.9-1.1c0.3-0.1,0.5-0.1,0.8-0.2l0.4-0.1c0.1,0,0.3,0,0.4-0.1c0.3,0,0.5-0.1,0.8-0.1
							c0.1,0,0.3,0,0.4,0l0.4,0c0.5,0,1.1,0.2,1.6,0.4c0.5,0.2,1,0.6,1.3,1c0.2,0.2,0.3,0.5,0.3,0.8c0,0.3,0,0.6-0.1,0.8
							c-0.1,0.3-0.2,0.5-0.4,0.7c-0.2,0.2-0.4,0.4-0.6,0.6c-0.4,0.3-0.9,0.5-1.5,0.6c-0.5,0.1-1,0.1-1.6,0c0,0,0,0,0,0c0,0,0,0,0,0
							c0.5,0,1,0,1.5-0.1c0.5-0.1,1-0.3,1.4-0.6c0.2-0.2,0.4-0.3,0.5-0.5c0.1-0.2,0.2-0.4,0.3-0.7c0.1-0.2,0.1-0.5,0-0.7
							c0-0.2-0.1-0.5-0.3-0.7c-0.3-0.4-0.7-0.7-1.1-0.9c-0.5-0.2-1-0.3-1.4-0.3c-1,0-2,0.1-3,0.4c-1,0.3-1.9,0.7-2.9,1.1
							c-0.9,0.4-1.9,0.9-2.8,1.4c-1.8,1-3.6,2-5.5,3c-1.9,1-3.8,1.8-5.8,2.5c-1,0.3-2,0.6-3.1,0.8l-0.8,0.1c-0.3,0-0.5,0.1-0.8,0.1
							s-0.5,0-0.8,0.1s-0.5,0-0.8,0c-1.1,0-2.1-0.1-3.1-0.3c-0.5-0.1-1-0.3-1.5-0.6c-0.5-0.2-0.9-0.5-1.3-0.9
							c-0.4-0.4-0.7-0.8-1-1.2c-0.1-0.1-0.1-0.2-0.2-0.4l-0.2-0.4c0-0.1-0.1-0.3-0.1-0.4s-0.1-0.3-0.1-0.4c-0.2-1.1,0.1-2.2,0.8-3
							c0.3-0.4,0.7-0.8,1.2-1.1c0.2-0.1,0.5-0.3,0.7-0.4l0.2-0.1c0.1,0,0.1-0.1,0.2-0.1l0.4-0.1c0.1,0,0.3-0.1,0.4-0.1
							c0.1,0,0.3-0.1,0.4-0.1l0.4,0l0.2,0h0.2c0.3,0,0.5,0,0.8,0l0.4,0l0.1,0l0.1,0l0.2,0c1.1,0.2,2.1,0.4,3.1,0.9
							c1,0.4,1.9,0.9,2.8,1.5c1.8,1.2,3.4,2.5,4.9,3.9c1.6,1.4,3.1,2.8,4.7,4.1c0.8,0.7,1.6,1.2,2.5,1.8c0.4,0.3,0.9,0.5,1.3,0.7
							c0.5,0.2,0.9,0.3,1.4,0.4c0.2,0,0.5,0,0.7,0c0.1,0,0.2,0,0.3,0l0.2,0l0.1,0l0.1,0c0.4-0.1,0.9-0.2,1.2-0.5
							c0.2-0.1,0.3-0.3,0.4-0.5c0.1-0.2,0.1-0.4,0-0.6c-0.2-0.4-0.5-0.8-1-0.9c-0.1,0-0.2-0.1-0.4-0.1c-0.1,0-0.2,0-0.4-0.1l-0.1,0
							h-0.1l-0.2,0c-0.1,0-0.3,0-0.4,0c-0.5,0.1-1,0.2-1.4,0.5c-0.4,0.2-0.9,0.6-1.2,0.9c-0.4,0.4-0.7,0.7-1,1.1
							c-0.6,0.8-1.2,1.7-1.6,2.6c-0.2,0.5-0.4,0.9-0.7,1.4s-0.4,1-0.5,1.4l0,0l0-0.2l2.4,3.2h-1.1l2.4-3.2l0,0.2l0,0
							c-0.2-0.5-0.3-1-0.5-1.4s-0.4-0.9-0.7-1.4c-0.5-0.9-1-1.8-1.6-2.6c-0.3-0.4-0.7-0.8-1-1.1c-0.4-0.4-0.8-0.7-1.2-0.9
							c-0.4-0.2-0.9-0.4-1.4-0.5c-0.1,0-0.2,0-0.4,0l-0.2,0h-0.1l-0.1,0l-0.2,0l-0.1,0l0,0l0,0c-0.1,0-0.2,0.1-0.4,0.1
							c-0.5,0.1-0.8,0.5-1,0.9c-0.1,0.2-0.1,0.4,0,0.6c0.1,0.2,0.2,0.4,0.4,0.5c0.4,0.3,0.8,0.5,1.3,0.5c0.5,0.1,1,0.1,1.4,0
							c0.5-0.1,1-0.2,1.4-0.4c0.5-0.2,0.9-0.4,1.3-0.7c0.9-0.5,1.7-1.1,2.5-1.8c1.6-1.3,3.1-2.8,4.7-4.2c1.5-1.4,3.2-2.7,5-3.9
							c1.8-1.2,3.8-1.9,5.9-2.3l0.2,0l0.1,0l0.1,0l0.4,0c0.3,0,0.5,0,0.8,0h0.2l0.2,0l0.4,0c0.1,0,0.3,0,0.4,0.1
							c0.1,0,0.3,0.1,0.4,0.1c0.5,0.1,1,0.3,1.5,0.6c0.5,0.3,0.9,0.7,1.2,1.1c0.3,0.4,0.6,0.9,0.7,1.4c0.1,0.5,0.2,1.1,0.1,1.6
							c-0.1,0.5-0.3,1-0.5,1.5c-0.3,0.5-0.6,0.9-1,1.2c-0.8,0.7-1.8,1.2-2.8,1.5c-0.3,0.1-0.5,0.1-0.8,0.2c-0.3,0-0.5,0.1-0.8,0.1
							c-0.3,0-0.5,0-0.8,0h0h-0.2h-0.2h-0.4c-1.1,0-2.1-0.2-3.1-0.4c-1-0.2-2.1-0.5-3.1-0.8c-2-0.7-3.9-1.5-5.8-2.5
							c-1.9-0.9-3.7-2-5.5-3c-0.9-0.5-1.8-1-2.8-1.4c-0.9-0.4-1.9-0.8-2.9-1.1c-0.2-0.1-0.5-0.1-0.7-0.2l-0.4-0.1
							c-0.1,0-0.2-0.1-0.4-0.1c-0.3,0-0.5-0.1-0.8-0.1l-0.2,0h-0.1h0h0l-0.4,0c-0.5,0-1,0.1-1.5,0.3c-0.5,0.2-0.8,0.5-1.1,0.9
							c-0.1,0.2-0.2,0.4-0.3,0.7c0,0.2,0,0.5,0,0.7c0.1,0.2,0.2,0.5,0.3,0.7c0.1,0.2,0.3,0.4,0.5,0.5c0.4,0.3,0.9,0.5,1.4,0.6
							C44.7,34.2,45.2,34.2,45.7,34.2z"/>
					</g>
				</g>
			</g>
		</g>
		<g id="Group_2319" transform="translate(9.191 10.504)">
			<g id="Group_2314" transform="translate(0 0)">
				<path id="Path_928" class="st2" d="M2,2.1v3.8h3v1.9H2v4h3.7v1.9H0V0.2h5.7v1.9L2,2.1z"/>
				<path id="Path_929" class="st2" d="M14.8,13.6h-2.1L11,8.9h0l-1.6,4.7H7.3l2.6-6.9L7.4,0.2h2.1l1.5,4.3h0l1.4-4.3h2.1l-2.4,6.5
					L14.8,13.6z"/>
				<path id="Path_930" class="st2" d="M19.3,2.1v11.5h-2V2.1h-2.2V0.2h6.3v1.9H19.3z"/>
				<path id="Path_931" class="st2" d="M25.5,7.9h-0.9v5.7h-2V0.2h2.9c1.7-0.2,3.2,1,3.4,2.7c0,0.2,0,0.5,0,0.7v1
					c0.1,1.2-0.4,2.3-1.4,2.9l1.9,6.1h-2.1L25.5,7.9z M24.6,6h0.8c1,0,1.4-0.5,1.4-1.6V3.7c0-1.1-0.4-1.6-1.4-1.6h-0.8V6z"/>
				<path id="Path_932" class="st2" d="M35.1,13.6l-0.4-3h-2.2l-0.4,3h-2l2.3-13.4h2.6l2.3,13.4H35.1z M32.7,8.7h1.7l-0.8-5.6h-0.1
					L32.7,8.7z"/>
				<path id="Path_933" class="st1" d="M43.9,13.6V3.3h-2.8V1.9c1.6-0.1,3-0.7,3.4-1.7h1.4v13.4H43.9z"/>
				<path id="Path_935" class="st2" d="M59.4,2.1V5c0.1,1.1-0.7,2-1.7,2.1c-0.1,0-0.2,0-0.3,0c-1.1,0.1-2-0.7-2-1.8
					c0-0.1,0-0.2,0-0.3V2.1C55.2,1,56,0.1,57,0c0.1,0,0.2,0,0.3,0c1.1-0.1,2,0.7,2,1.8C59.4,1.9,59.4,2,59.4,2.1z M56.5,13.7L62.8,0
					h1.3l-6.3,13.7H56.5z M56.7,2.1V5c0,0.6,0.2,0.9,0.7,0.9S58,5.6,58,5V2.1c0-0.6-0.2-0.9-0.7-0.9S56.7,1.5,56.7,2.1L56.7,2.1z
					 M65.3,8.7v2.9c0.1,1.1-0.7,2-1.7,2.1c-0.1,0-0.2,0-0.3,0c-1.1,0.1-2-0.7-2-1.8c0-0.1,0-0.2,0-0.3V8.7c-0.1-1.1,0.7-2,1.7-2.1
					c0.1,0,0.2,0,0.3,0c1.1-0.1,2,0.7,2,1.8C65.3,8.5,65.3,8.6,65.3,8.7L65.3,8.7z M62.6,8.7v2.9c0,0.6,0.2,0.9,0.7,0.9
					s0.7-0.3,0.7-0.9V8.7c0-0.6-0.2-0.9-0.7-0.9S62.6,8.2,62.6,8.7L62.6,8.7z"/>
				<path id="Path_936" class="st2" d="M76.9,3.4v7c0.2,1.7-1.1,3.2-2.7,3.4c-0.2,0-0.4,0-0.5,0c-1.7,0.1-3.2-1.2-3.3-2.9
					c0-0.2,0-0.4,0-0.5v-7c-0.2-1.7,1.1-3.2,2.7-3.4c0.2,0,0.4,0,0.5,0c1.7-0.1,3.2,1.2,3.3,2.9C76.9,3,76.9,3.2,76.9,3.4z
					 M72.4,3.4v6.9c0,1,0.4,1.5,1.2,1.5s1.2-0.5,1.2-1.5V3.4c0-1-0.4-1.5-1.2-1.5S72.4,2.4,72.4,3.4L72.4,3.4z"/>
				<path id="Path_937" class="st2" d="M80.9,2.1v3.8h2.9v1.9h-2.9v5.8h-2V0.2h5.6v1.9L80.9,2.1z"/>
				<path id="Path_938" class="st2" d="M87.8,2.1v3.8h2.9v1.9h-2.9v5.8h-2V0.2h5.6v1.9L87.8,2.1z"/>
				<g>
					<path class="st1" d="M48.6,13.3c-0.5-0.7-0.8-1.7-0.8-2.9V4c0-1.2,0.3-2.2,0.8-2.9s1.3-1,2.4-1c1,0,1.8,0.3,2.4,1
						s0.8,1.7,0.8,2.9v6.3c0,1.2-0.3,2.2-0.8,2.9s-1.3,1-2.4,1C50,14.3,49.2,14,48.6,13.3z M52.2,11.9c0.3-0.4,0.4-0.9,0.4-1.6V4
						c0-0.7-0.1-1.2-0.4-1.6C52,2.1,51.6,1.9,51,1.9s-1,0.2-1.2,0.5c-0.3,0.4-0.4,0.9-0.4,1.6v6.3c0,0.7,0.1,1.2,0.4,1.6
						s0.7,0.5,1.2,0.5S52,12.3,52.2,11.9z"/>
				</g>
			</g>
			<g id="Group_2315" transform="translate(7.446)">
				<path id="Path_939" class="st1" d="M0.8,10.9c0.5-0.5,1.1-0.9,1.6-1.3C3,9.1,3.5,8.5,4,7.9C4.3,7.6,4.6,7.3,4.9,7L4.8,6.7
					l2.4-6.5H5.1L3.7,4.4h0L2.1,0.2H0l2.4,6.4L0.8,10.9z"/>
				<path id="Path_940" class="st1" d="M9.8,3.6c0.7-0.3,1.3-0.5,2-0.7V2.1H14V0.2H7.7v1.9h2.2V3.6z"/>
				<path id="Path_941" class="st1" d="M17.1,2.3V2.1h0.8c0.5-0.1,0.9,0.2,1.2,0.6l0.1,0c0.7,0.2,1.3,0.5,2,0.7l0.2,0.1
					c0.1-1.7-1.1-3.1-2.7-3.2c-0.2,0-0.4,0-0.6,0h-2.9v2.1C15.8,2.2,16.4,2.2,17.1,2.3z"/>
				<path id="Path_942" class="st1" d="M25.2,5c0.2,0.1,0.4,0.2,0.6,0.3l0.3-2.3h0.1L26.6,6c0.7,0.6,1.5,1.2,2.2,1.8l-1.3-7.6h-2.6
					l-0.7,4.3C24.5,4.7,24.8,4.8,25.2,5z"/>
				<path id="Path_945" class="st1" d="M52,2.1V5c0.1,1.1-0.7,2-1.7,2.1c-0.1,0-0.2,0-0.3,0c-1.1,0.1-2-0.7-2-1.8c0-0.1,0-0.2,0-0.3
					V2.1c-0.1-1.1,0.7-2,1.7-2.1c0.1,0,0.2,0,0.3,0c1.1-0.1,2,0.7,2,1.8C52,1.9,52,2,52,2.1z M49.1,13.7L55.4,0h1.3l-6.3,13.7H49.1z
					 M49.2,2.1V5c0,0.6,0.2,0.9,0.7,0.9s0.7-0.3,0.7-0.9V2.1c0-0.6-0.2-0.9-0.7-0.9S49.2,1.5,49.2,2.1L49.2,2.1z M57.8,8.7v2.9
					c0.1,1.1-0.7,2-1.7,2.1c-0.1,0-0.2,0-0.3,0c-1.1,0.1-2-0.7-2-1.8c0-0.1,0-0.2,0-0.3V8.7c-0.1-1.1,0.7-2,1.7-2.1
					c0.1,0,0.2,0,0.3,0c1.1-0.1,2,0.7,2,1.8C57.8,8.5,57.8,8.6,57.8,8.7L57.8,8.7z M55.1,8.7v2.9c0,0.6,0.2,0.9,0.7,0.9
					s0.7-0.3,0.7-0.9V8.7c0-0.6-0.2-0.9-0.7-0.9S55.1,8.2,55.1,8.7L55.1,8.7z"/>
				<path id="Path_946" class="st1" d="M69.4,3.4v7c0.2,1.7-1.1,3.2-2.7,3.4c-0.2,0-0.3,0-0.5,0c-1.7,0.1-3.2-1.2-3.3-2.9
					c0-0.2,0-0.4,0-0.5v-7c-0.2-1.7,1.1-3.2,2.7-3.4c0.2,0,0.4,0,0.5,0c1.7-0.1,3.2,1.2,3.3,2.9C69.4,3,69.4,3.2,69.4,3.4z
					 M64.9,3.4v6.9c0,1,0.4,1.5,1.2,1.5s1.2-0.5,1.2-1.5V3.4c0-1-0.4-1.5-1.2-1.5S64.9,2.4,64.9,3.4z"/>
				<path id="Path_947" class="st1" d="M73.4,2.1v3.8h2.9v1.9h-2.9v5.8h-2V0.2H77v1.9H73.4z"/>
				<path id="Path_948" class="st1" d="M80.3,2.1v3.8h2.9v1.9h-2.9v5.8h-2V0.2h5.6v1.9H80.3z"/>
			</g>
			<path id="Path_949" class="st2" d="M62.4,15.9c-1.6,0.8-3.3,1.2-5.1,1.3c-1.8,0.1-3.6-0.1-5.4-0.5c-2-0.5-4-1.2-5.8-2.3
				c-1.4-0.7-2.7-1.5-3.9-2.5c-0.9-0.6-1.3-1-2.3-1.8c-2.5-2-4.1-3.4-5.7-4.4c-1.6-1.1-3.3-2-5.1-2.8c-0.7-0.3-1.4-0.5-2.1-0.7
				c-1.2-0.3-2.5-0.5-3.7-0.5c-1.1,0-2.3,0.2-3.4,0.4c-0.4,0.1-0.9,0.2-1.3,0.4c-0.9,0.3-1.9,0.7-2.7,1.2c-0.3,0.2-0.7,0.4-1.3,0.8
				c-1.3,0.9-2.5,1.9-3.6,3c-1.2,1.1-2.1,2.2-3.7,3.6c-0.1,0.1-0.2,0.1-0.3,0.2c-0.3,0.1-0.6,0.2-1,0.2c-0.3,0-0.5,0-0.7,0
				c-0.3,0.5-0.3,1.2,0.1,1.7c0.1,0.1,0.2,0.1,0.4,0.2c0.6-0.2,1.2-0.5,1.7-0.9c0.4-0.3,0.7-0.7,1-1.1c0.2-0.3,0.3-0.4,0.5-0.6
				c0.5-0.5,0.9-1,1.4-1.5c0.9-0.9,1.6-1.5,2-1.9C13,7,13.7,6.4,14.4,5.9c2.3-1.7,4.9-2.7,7.7-3c0.7-0.1,1.3-0.1,2,0
				c0.7,0,1.4,0.1,2.1,0.3c0.5,0.1,1.1,0.3,1.6,0.5c0.2,0,0.3,0.1,0.4,0.1c0.8,0.4,1.7,0.7,2.5,1.1c1.5,0.8,3,1.7,4.4,2.7
				c0.7,0.5,1.2,0.9,1.7,1.4c2.3,2,4.6,3.8,7.1,5.4c1.6,1.1,3.4,1.9,5.3,2.6c2.4,0.9,4.9,1.2,7.5,1c2.1-0.2,4.2-0.9,6-2
				c0,0,0.1-0.1,0.1-0.1C62.7,15.8,62.5,15.9,62.4,15.9z"/>
		</g>
	</g>
</g>
</svg>
