<svg xmlns="http://www.w3.org/2000/svg" viewBox="0 0 25.21 24.1"><defs><style>.cls-1{isolation:isolate;}.cls-2{fill:#2a4153;}</style></defs><g id="Layer_2" data-name="Layer 2"><g id="Layer_1-2" data-name="Layer 1"><g id="_" data-name=" " class="cls-1"><g class="cls-1"><path class="cls-2" d="M14.76,16a5.43,5.43,0,0,1-4.53,2.21c-2.67,0-4.29-1.7-4.29-4.48,0-3.94,2.56-7.56,6.26-7.56A3.17,3.17,0,0,1,15.28,7.8l.24-1.43h3.73l-1.19,6.78c-.22,1.24-.08,2,1,2,1.86,0,2.67-2.95,2.67-5.48C21.7,5.61,19,3.1,14.25,3.1a10.7,10.7,0,0,0-10.77,11c0,4.35,2.67,6.88,7.24,6.88a11.7,11.7,0,0,0,4.77-1l.73,2.94a14.54,14.54,0,0,1-5.94,1.16C4.08,24.1,0,20.33,0,14.44,0,6.15,6.29,0,14.71,0c6.48,0,10.5,3.91,10.5,9.58,0,4.51-2.4,8.59-6.83,8.59C16.47,18.17,15.2,17.36,14.76,16ZM12.69,9.47c-1.62,0-2.76,1.62-2.76,3.46a1.74,1.74,0,0,0,1.81,2,3.17,3.17,0,0,0,2.86-3.35A1.87,1.87,0,0,0,12.69,9.47Z"/></g></g></g></g></svg>