<svg xmlns="http://www.w3.org/2000/svg" width="39.296" height="24" viewBox="0 0 39.296 24">
  <g id="Group_1498" data-name="Group 1498" transform="translate(-79 -1268)">
    <path id="Union_3" data-name="Union 3" d="M-8.625,24A.375.375,0,0,1-9,23.625V23.25a1.49,1.49,0,0,0-.439-1.061A1.49,1.49,0,0,0-10.5,21.75v-1.5a.751.751,0,0,0,.75-.75V18a.751.751,0,0,0-.75-.75v-1.5A.751.751,0,0,0-9.75,15V13.5a.751.751,0,0,0-.75-.75v-1.5a.751.751,0,0,0,.75-.75V9a.751.751,0,0,0-.75-.75V6.75A.751.751,0,0,0-9.75,6V4.5a.751.751,0,0,0-.75-.75V2.25h.072A1.52,1.52,0,0,0-9,.707V.375A.375.375,0,0,1-8.625,0H23.922A.375.375,0,0,1,24.3.375V.75a1.5,1.5,0,0,0,1.5,1.5h0c.048,0,.1,0,.145-.007l-.074.005-.072,0h0v1.5a.751.751,0,0,0-.75.75V6a.751.751,0,0,0,.75.75v1.5a.751.751,0,0,0-.75.75v1.5a.751.751,0,0,0,.75.75v1.5a.751.751,0,0,0-.75.75V15a.751.751,0,0,0,.75.75v1.5a.751.751,0,0,0-.75.75v1.5a.751.751,0,0,0,.75.75v1.5h0l-.069,0A1.52,1.52,0,0,0,24.3,23.293v.332a.375.375,0,0,1-.375.375H-8.625ZM-12,23.25a1.5,1.5,0,0,1,.368-.984,1.5,1.5,0,0,1,.862-.492h0A1.532,1.532,0,0,0-12,23.27Zm37.8-1.5a1.475,1.475,0,0,1,.684.165h0A1.508,1.508,0,0,0,25.8,21.75Zm-36.371,0,.072,0h0c-.048,0-.1,0-.145.007ZM-10.5,21.75Zm-.687-19.665h0a1.51,1.51,0,0,0,.684.166A1.478,1.478,0,0,1-11.186,2.084Zm37.253.141A1.532,1.532,0,0,0,27.3.73V.75a1.5,1.5,0,0,1-1.23,1.476Z" transform="translate(91 1268)" fill="#2a4153"/>
    <text id="_" data-name="%" transform="translate(99 1287)" fill="#fff" font-size="19" font-family="Gotham-Bold, Gotham" font-weight="700"><tspan x="-8.17" y="0">%</tspan></text>
  </g>
</svg>
