<svg xmlns="http://www.w3.org/2000/svg" width="167.631" height="102.38" viewBox="0 0 167.631 102.38">
  <path id="Union_3" data-name="Union 3" d="M2.4,102.38a1.6,1.6,0,0,1-1.6-1.6v-1.6a6.358,6.358,0,0,0-1.874-4.525A6.356,6.356,0,0,0-5.6,92.781v-6.4a3.2,3.2,0,0,0,3.2-3.2v-6.4a3.2,3.2,0,0,0-3.2-3.2v-6.4a3.2,3.2,0,0,0,3.2-3.2v-6.4a3.2,3.2,0,0,0-3.2-3.2v-6.4a3.2,3.2,0,0,0,3.2-3.2v-6.4a3.2,3.2,0,0,0-3.2-3.2v-6.4a3.2,3.2,0,0,0,3.2-3.2V19.2A3.2,3.2,0,0,0-5.6,16V9.6h.015c.1,0,.194,0,.293-.006A6.485,6.485,0,0,0,.8,3.018V1.6A1.6,1.6,0,0,1,2.4,0H141.234a1.6,1.6,0,0,1,1.6,1.6V3.2a6.4,6.4,0,0,0,6.4,6.4h.008c.205,0,.414-.01.619-.03-.106.011-.213.019-.318.023s-.207.007-.309.007h0V16a3.2,3.2,0,0,0-3.2,3.2v6.4a3.2,3.2,0,0,0,3.2,3.2v6.4a3.2,3.2,0,0,0-3.2,3.2v6.4a3.2,3.2,0,0,0,3.2,3.2v6.4a3.2,3.2,0,0,0-3.2,3.2v6.4a3.2,3.2,0,0,0,3.2,3.2v6.4a3.2,3.2,0,0,0-3.2,3.2v6.4a3.2,3.2,0,0,0,3.2,3.2v6.4h-.015c-.1,0-.194,0-.293.007a6.484,6.484,0,0,0-6.089,6.574v1.418a1.6,1.6,0,0,1-1.6,1.6H2.4Zm-14.4-3.2a6.392,6.392,0,0,1,1.57-4.2,6.42,6.42,0,0,1,3.676-2.1h0A6.536,6.536,0,0,0-12,99.265Zm161.241-6.4a6.292,6.292,0,0,1,2.92.7h0A6.432,6.432,0,0,0,149.242,92.782ZM-5.91,92.788c.1,0,.207-.007.309-.007h-.007c-.205,0-.414.011-.619.031C-6.122,92.8-6.015,92.794-5.91,92.788ZM-5.6,92.781ZM-8.529,8.892h0A6.442,6.442,0,0,0-5.61,9.6,6.3,6.3,0,0,1-8.529,8.892Zm158.916.6a6.535,6.535,0,0,0,5.244-6.377V3.2a6.4,6.4,0,0,1-5.245,6.295Z" transform="translate(12)" fill="#ea8d72"/>
</svg>
