<svg xmlns="http://www.w3.org/2000/svg" width="34.828" height="27.309" viewBox="0 0 34.828 27.309">
  <g id="Group_1439" data-name="Group 1439" transform="translate(13885.766 545.054)">
    <g id="cut-svgrepo-com" transform="translate(-13885.766 -545.054)" style="isolation: isolate">
      <path id="Path_413" data-name="Path 413" d="M37.069,91.181a5.563,5.563,0,0,0,3.476-1.216l3.222,1.312.53-.981a3.039,3.039,0,0,1,.335-.495l1.1-1.12-3.2-1.937a5.591,5.591,0,1,0-5.47,4.436Zm0-8.7a3.106,3.106,0,1,1-3.106,3.106A3.106,3.106,0,0,1,37.069,82.484Z" transform="translate(-31.478 -80)" fill="#2a4153"/>
      <path id="Path_414" data-name="Path 414" d="M66.853,140.4l-.429-.977c-.348-.809-1.145-1.242-2.545-1.386a12.28,12.28,0,0,0-3.858.3c-1.553.346-9.484,2.19-12.808,4.552a5.392,5.392,0,0,0-2.1,3.817,3.766,3.766,0,0,1-1.4,2.718,10.1,10.1,0,0,1-2.607,1.444,5.571,5.571,0,1,0,1.925,2.951Zm-17.434,6.756a1.242,1.242,0,1,1,1.242-1.242A1.242,1.242,0,0,1,49.419,147.155Zm-11.8,11.182a3.106,3.106,0,1,1,3.106-3.106A3.106,3.106,0,0,1,37.616,158.336Z" transform="translate(-32.025 -133.488)" fill="#2a4153"/>
      <path id="Path_415" data-name="Path 415" d="M266.553,259.87l-6.5,3.741,2.146,1.016.281.135a26.039,26.039,0,0,0,9.258,2.805c.3.018.58.026.837.026a5.457,5.457,0,0,0,2.985-.725l1.572-1.087Z" transform="translate(-242.301 -245.903)" fill="#2a4153"/>
    </g>
    <g id="cut-svgrepo-com-2" data-name="cut-svgrepo-com" transform="translate(-13885.766 -545.054)" style="isolation: isolate">
      <path id="Path_413-2" data-name="Path 413" d="M37.069,91.181a5.563,5.563,0,0,0,3.476-1.216l3.222,1.312.53-.981a3.039,3.039,0,0,1,.335-.495l1.1-1.12-3.2-1.937a5.591,5.591,0,1,0-5.47,4.436Zm0-8.7a3.106,3.106,0,1,1-3.106,3.106A3.106,3.106,0,0,1,37.069,82.484Z" transform="translate(-31.478 -80)" fill="#2a4153"/>
      <path id="Path_415-2" data-name="Path 415" d="M266.553,259.87l-6.5,3.741,2.146,1.016.281.135a26.039,26.039,0,0,0,9.258,2.805c.3.018.58.026.837.026a5.457,5.457,0,0,0,2.985-.725l1.572-1.087Z" transform="translate(-242.301 -245.903)" fill="#2a4153"/>
    </g>
  </g>
</svg>
