<svg xmlns="http://www.w3.org/2000/svg" width="19.033" height="21.737" viewBox="0 0 19.033 21.737">
  <g id="Layer_1" data-name="Layer 1" transform="translate(-11.159 -9.785)">
    <path id="Path_376" data-name="Path 376" d="M34.033,38.234c.2-.123.322-.18.426-.255,1.575-1.045,3.146-2.105,4.731-3.141a.752.752,0,0,0,.393-.714V28.247a.719.719,0,0,0-.374-.681C37.15,26.2,35.1,24.841,33.058,23.46a.525.525,0,0,0-.71,0c-.4.3-.833.568-1.306.885.18.137.307.246.445.336,1.992,1.334,3.993,2.659,5.984,4a1.334,1.334,0,1,1-1.523,2.176L31.218,27.7l-3.193-2.129a1.354,1.354,0,0,1,0-2.432c1.244-.828,2.493-1.646,3.723-2.488a1.528,1.528,0,0,1,1.892,0q3.917,2.635,7.848,5.237a1.481,1.481,0,0,1,.724,1.334v7.957a1.419,1.419,0,0,1-.667,1.277q-3.983,2.635-7.957,5.3a1.471,1.471,0,0,1-1.783,0q-3.95-2.668-7.919-5.284a1.419,1.419,0,0,1-.7-1.3V27.216a1.334,1.334,0,0,1,2.138-1.168l8.042,5.365a1.452,1.452,0,0,1,.662,1.291v5Zm-8.156-8.6a2.777,2.777,0,0,0-.057.345v4.258a.785.785,0,0,0,.336.52c1.585,1.079,3.184,2.138,4.778,3.2.109.071.222.128.388.222V33.664a.714.714,0,0,0-.374-.676c-1.58-1.041-3.151-2.1-4.731-3.141C26.161,29.8,26.047,29.742,25.877,29.633Z" transform="translate(-12.022 -10.541)" fill="#26a541"/>
  </g>
</svg>
