<svg xmlns="http://www.w3.org/2000/svg" viewBox="0 0 60.83 53.7"><defs><style>.cls-1{fill:#2a4153;}</style></defs><g id="Layer_2" data-name="Layer 2"><g id="Layer_1-2" data-name="Layer 1"><path class="cls-1" d="M60.83,50.17c-2.36,0-4.72,0-7.07,0a.69.69,0,0,0-.52.32,5.34,5.34,0,0,1-9.8,0c-.07-.15-.31-.23-.48-.31a.7.7,0,0,0-.29,0H18.12a.88.88,0,0,0-.93.58,5.07,5.07,0,0,1-4.77,3,5,5,0,0,1-4.75-3,.87.87,0,0,0-.94-.56c-2,0-4,0-6.06,0H0v-32H18.3c-.08-.25-.13-.42-.19-.59a13.05,13.05,0,1,1,25.12-6.72,12.92,12.92,0,0,1-3.46,11.38,1.49,1.49,0,0,0-.35.87c0,1.09,0,2.18,0,3.37h.7c3.75,0,7.49,0,11.24,0a.71.71,0,0,1,.8.56q1.45,3.88,3,7.76a1.19,1.19,0,0,0,.49.61c1.66.79,3.33,1.55,5,2.32a.85.85,0,0,0,.23,0ZM30.41,31.52l-.25-.22C27.06,28.2,24,25.11,20.89,22a1.19,1.19,0,0,0-.93-.38c-5.27,0-10.54,0-15.81,0H3.54v25c1.12,0,2.21,0,3.29,0a.74.74,0,0,0,.8-.49,5.07,5.07,0,0,1,4.77-3.06,5.08,5.08,0,0,1,4.84,3.06.75.75,0,0,0,.79.49H35.27c.19,0,.38,0,.56,0V26.09Zm0-5a1.33,1.33,0,0,0,.16-.12c2.27-2.27,4.59-4.5,6.8-6.82A9.52,9.52,0,0,0,29,3.65a9.09,9.09,0,0,0-7.47,6A8.73,8.73,0,0,0,23,19c2.29,2.64,4.9,5,7.37,7.49Zm9,3.47V46.62c1.23,0,2.41,0,3.6,0a.59.59,0,0,0,.41-.32,5.33,5.33,0,0,1,9.78,0c.07.14.23.32.35.33,1.22,0,2.44,0,3.7,0,0-2.18,0-4.27,0-6.37,0-.15-.21-.35-.38-.43-1-.47-1.92-.92-2.9-1.34a2.49,2.49,0,0,0-1-.21c-3.11,0-6.22,0-9.33,0H43V30Zm7.14,0v4.75h4.75c-.6-1.55-1.16-3-1.75-4.53a.46.46,0,0,0-.35-.21C48.36,29.93,47.5,29.94,46.58,29.94ZM14.24,48.41a1.81,1.81,0,1,0-1.84,1.78A1.82,1.82,0,0,0,14.24,48.41Zm34.07,1.78a1.81,1.81,0,1,0-1.77-1.85A1.82,1.82,0,0,0,48.31,50.19Z"/><path class="cls-1" d="M30.41,19a5.92,5.92,0,1,1,5.9-5.91A6,6,0,0,1,30.41,19Zm0-8.32a2.4,2.4,0,1,0,2.42,2.4A2.4,2.4,0,0,0,30.37,10.67Z"/></g></g></svg>