<svg xmlns="http://www.w3.org/2000/svg" viewBox="0 0 43.01 43.01"><defs><style>.cls-1{fill:#2a4153;}</style></defs><g id="Layer_2" data-name="Layer 2"><g id="Layer_1-2" data-name="Layer 1"><path class="cls-1" d="M22.42,0c.69.08,1.39.16,2.08.26A20.9,20.9,0,0,1,34.89,4.84l.35.29.16,0c0-.47,0-.92,0-1.37A1.8,1.8,0,0,1,36.69,2a1.75,1.75,0,0,1,2.25,1.66c0,2,0,4,0,6a1.73,1.73,0,0,1-1.8,1.72h-5.8a1.79,1.79,0,0,1-1.83-1.76,1.76,1.76,0,0,1,1.76-1.77c.51,0,1,0,1.65,0-.15-.16-.21-.24-.29-.31a17.58,17.58,0,0,0-9.31-3.89A17.84,17.84,0,0,0,4.71,15.12a17.31,17.31,0,0,0-1.14,5.69c0,.28,0,.56,0,.84A1.78,1.78,0,0,1,1.7,23.26,1.78,1.78,0,0,1,0,21.46a19.56,19.56,0,0,1,1-6.57C3.83,7,9.32,2.15,17.5.38c.77-.17,1.56-.2,2.33-.3A3,3,0,0,0,20.24,0Z"/><path class="cls-1" d="M43,22.61c-.08.68-.15,1.36-.25,2A21,21,0,0,1,37.36,36a20.54,20.54,0,0,1-11.84,6.61A20.94,20.94,0,0,1,8.27,38.33L7.78,38c0,.56,0,1,0,1.5a1.79,1.79,0,0,1-1.57,1.71A1.75,1.75,0,0,1,4.34,40a2.59,2.59,0,0,1-.1-.74c0-1.83,0-3.67,0-5.5a1.81,1.81,0,0,1,2-2q2.77,0,5.55,0a1.71,1.71,0,0,1,1.69,1.08,1.68,1.68,0,0,1-.3,1.88,1.86,1.86,0,0,1-1.47.6H10.29l0,.12c.62.44,1.22.91,1.86,1.32A17.83,17.83,0,0,0,39,25.54a32.37,32.37,0,0,0,.45-3.82,1.91,1.91,0,0,1,1.25-1.86A1.79,1.79,0,0,1,42.89,21l.12.3Z"/><path class="cls-1" d="M22.92,28.9l4-2.65c.51-.34,1-.67,1.53-1a.7.7,0,0,0,.26-.47q0-3.26,0-6.51a.59.59,0,0,0-.24-.44c-2.22-1.5-4.46-3-6.7-4.47a.43.43,0,0,0-.37-.07c-.53.33-1,.68-1.61,1.06l.41.29,6.3,4.2a1.44,1.44,0,0,1,.73,1.06,1.35,1.35,0,0,1-.65,1.4A1.37,1.37,0,0,1,25,21.21l-5-3.35L16.56,15.6a1.43,1.43,0,0,1,0-2.54c1.34-.9,2.69-1.78,4-2.68a1.53,1.53,0,0,1,1.87,0q4.15,2.79,8.32,5.55a1.53,1.53,0,0,1,.75,1.4q0,4.17,0,8.32a1.58,1.58,0,0,1-.77,1.44c-2.77,1.83-5.53,3.68-8.29,5.51a1.47,1.47,0,0,1-1.93,0q-4.11-2.75-8.22-5.47a1.67,1.67,0,0,1-.82-1.5c0-2.75,0-5.49,0-8.24A1.46,1.46,0,0,1,12.25,16a1.48,1.48,0,0,1,1.62.19c2.74,1.83,5.49,3.67,8.24,5.49a1.68,1.68,0,0,1,.82,1.55c0,1.72,0,3.44,0,5.17Zm-8.55-9a2.53,2.53,0,0,0,0,.29c0,1.54,0,3.07,0,4.61a.66.66,0,0,0,.28.45C16.3,26.38,18,27.5,19.7,28.64l.39.22c0-1.72,0-3.35,0-5,0-.12-.15-.28-.28-.37-1-.68-2-1.35-3-2Z"/></g></g></svg>