<svg xmlns="http://www.w3.org/2000/svg" viewBox="0 0 30.92 30.92"><defs><style>.cls-1{fill:#2a4153;}</style></defs><g id="Layer_2" data-name="Layer 2"><g id="Layer_1-2" data-name="Layer 1"><path class="cls-1" d="M14.67,0h1.57c.11,0,.21.05.32.06.57.07,1.15.1,1.71.21A15.2,15.2,0,0,1,26.9,5.09a15,15,0,0,1,3.84,8.16c.07.48.13,1,.18,1.43v1.58l-.06.35c-.05.44-.07.88-.14,1.32A14.81,14.81,0,0,1,27,25.72a15.08,15.08,0,0,1-14.73,4.86,14.6,14.6,0,0,1-8.67-5.2A15.07,15.07,0,0,1,.2,13,14.92,14.92,0,0,1,4.37,4.7,15.26,15.26,0,0,1,13.21.18C13.69.11,14.18.06,14.67,0Zm.8,2.41A13.06,13.06,0,1,0,28.52,15.48,13.05,13.05,0,0,0,15.47,2.41Z"/><path class="cls-1" d="M14.26,17.74c0-.47,0-.94,0-1.42A1.18,1.18,0,0,1,15.44,15a2.44,2.44,0,0,0,.47-4.83A2.44,2.44,0,0,0,13.09,12a3.55,3.55,0,0,0-.06.57,1.2,1.2,0,0,1-2.4,0A4.83,4.83,0,0,1,15.16,7.8,4.81,4.81,0,0,1,17,17.16c-.24.08-.35.18-.33.46,0,.52,0,1,0,1.56a1.2,1.2,0,1,1-2.39,0C14.25,18.71,14.26,18.23,14.26,17.74Z"/><path class="cls-1" d="M15.46,21.39A1.49,1.49,0,1,1,14,22.86,1.48,1.48,0,0,1,15.46,21.39Z"/></g></g></svg>