<svg xmlns="http://www.w3.org/2000/svg" viewBox="0 0 42.2 37.98"><defs><style>.cls-1{fill:#2a4153;}</style></defs><g id="Layer_2" data-name="Layer 2"><g id="Layer_1-2" data-name="Layer 1"><path id="_216242_home_icon" data-name=" 216242 home icon" class="cls-1" d="M21.1,0S8.05,11.27.75,17.37A2.2,2.2,0,0,0,0,19,2.1,2.1,0,0,0,2.11,21.1H6.33V35.87A2.1,2.1,0,0,0,8.44,38h6.33a2.1,2.1,0,0,0,2.11-2.11h0V27.43h8.44v8.44A2.1,2.1,0,0,0,27.43,38h6.33a2.1,2.1,0,0,0,2.11-2.1h0V21.1h4.22A2.1,2.1,0,0,0,42.2,19h0a2.07,2.07,0,0,0-.8-1.62C34.15,11.27,21.1,0,21.1,0Z"/></g></g></svg>