<svg width="40.44" height="40.43" xmlns="http://www.w3.org/2000/svg"><g><path d="M13.693 17.342H3.784A3.788 3.788 0 0 1 0 13.558V3.773A3.788 3.788 0 0 1 3.784-.01h9.909a3.788 3.788 0 0 1 3.783 3.783v9.785a3.788 3.788 0 0 1-3.783 3.784zM13.744 40.437H3.835a3.79 3.79 0 0 1-3.784-3.785v-9.784a3.788 3.788 0 0 1 3.784-3.783h9.909a3.788 3.788 0 0 1 3.78 3.783v9.784a3.788 3.788 0 0 1-3.78 3.785zM36.652 40.437h-9.909a3.79 3.79 0 0 1-3.784-3.785v-9.784a3.788 3.788 0 0 1 3.784-3.783h9.909a3.788 3.788 0 0 1 3.783 3.783v9.784a3.788 3.788 0 0 1-3.783 3.785zM23.085 8.669a8.673 8.673 0 0 0 8.63 8.672 8.716 8.716 0 0 0 8.716-8.673 8.673 8.673 0 1 0-17.346.001z" fill="#2a4153" fill-rule="evenodd"/></g></svg>