<?xml version="1.0" encoding="utf-8"?>
<!-- Generator: Adobe Illustrator 26.4.1, SVG Export Plug-In . SVG Version: 6.00 Build 0)  -->
<svg version="1.1" id="Layer_1" xmlns="http://www.w3.org/2000/svg" xmlns:xlink="http://www.w3.org/1999/xlink" x="0px" y="0px"
	 viewBox="0 0 64.1 45.2" style="enable-background:new 0 0 64.1 45.2;" xml:space="preserve">
<style type="text/css">
	.st0{fill:#EC1A3B;}
</style>
<g id="Group_408">
	<g id="Group_242">
		<g id="Line_1">
			<path class="st0" d="M61.6,5H2.5C1.1,5,0,3.9,0,2.5S1.1,0,2.5,0h59.1c1.4,0,2.5,1.1,2.5,2.5S63,5,61.6,5z"/>
		</g>
		<g id="Line_2">
			<path class="st0" d="M50.5,25.9h-48c-1.4,0-2.5-1.1-2.5-2.5s1.1-2.5,2.5-2.5h48c1.4,0,2.5,1.1,2.5,2.5S51.9,25.9,50.5,25.9z"/>
		</g>
		<g id="Path_277">
			<path class="st0" d="M33.9,45.2H2.5c-1.4,0-2.5-1.1-2.5-2.5s1.1-2.5,2.5-2.5h31.4c1.4,0,2.5,1.1,2.5,2.5S35.2,45.2,33.9,45.2z"/>
		</g>
	</g>
</g>
</svg>
