<svg xmlns="http://www.w3.org/2000/svg" viewBox="0 0 50.01 44.48"><defs><style>.cls-1{fill:#ea8d72;}</style></defs><g id="Layer_2" data-name="Layer 2"><g id="Layer_1-2" data-name="Layer 1"><g id="Group_440" data-name="Group 440"><path id="_8150286_wishlist_save_save_for_later_shopping_ecommerce_icon" data-name=" 8150286 wishlist save save for later shopping ecommerce icon" class="cls-1" d="M47.65,6.48A15,15,0,0,0,35.16,0,13.47,13.47,0,0,0,25,4.34,13.51,13.51,0,0,0,14.85,0,15,15,0,0,0,2.36,6.48,15.4,15.4,0,0,0,1.7,21.7,38.77,38.77,0,0,0,9.32,32.94,85.11,85.11,0,0,0,21.08,43.21a6.69,6.69,0,0,0,7.86,0A84.45,84.45,0,0,0,40.7,32.94,38.74,38.74,0,0,0,48.31,21.7,15.35,15.35,0,0,0,47.65,6.48Z"/></g></g></g></svg>