<svg xmlns="http://www.w3.org/2000/svg" viewBox="0 0 49.43 44.48"><defs><style>.cls-1{fill:#ea8d72;}</style></defs><g id="Layer_2" data-name="Layer 2"><g id="Layer_1-2" data-name="Layer 1"><path id="_216242_home_icon" data-name=" 216242 home icon" class="cls-1" d="M24.71,0S9.43,13.2.88,20.34A2.57,2.57,0,0,0,0,22.24a2.46,2.46,0,0,0,2.47,2.47H7.41V42a2.47,2.47,0,0,0,2.47,2.47H17.3A2.46,2.46,0,0,0,19.77,42h0V32.12h9.89V42a2.46,2.46,0,0,0,2.46,2.47h7.42A2.47,2.47,0,0,0,42,42h0V24.71H47a2.47,2.47,0,0,0,2.47-2.46h0a2.46,2.46,0,0,0-1-1.9C40,13.2,24.71,0,24.71,0Z"/></g></g></svg>