<svg xmlns="http://www.w3.org/2000/svg" width="20.734" height="20.684" viewBox="0 0 20.734 20.684">
  <g id="Iconly_Curved_Filter" data-name="Iconly/Curved/Filter" transform="translate(-3.671 -3.671)">
    <g id="Filter" transform="translate(4.671 4.671)">
      <path id="Stroke_1" data-name="Stroke 1" d="M12.26,17.883H4.671" transform="translate(-4.671 -2.392)" fill="none" stroke="#2a4153" stroke-linecap="round" stroke-linejoin="round" stroke-width="2"/>
      <path id="Stroke_3" data-name="Stroke 3" d="M15.205,18.354c0,2.394.8,3.191,3.191,3.191s3.191-.8,3.191-3.191-.8-3.191-3.191-3.191S15.205,15.959,15.205,18.354Z" transform="translate(-2.853 -2.861)" fill="none" stroke="#2a4153" stroke-linecap="round" stroke-linejoin="round" stroke-width="2" fill-rule="evenodd"/>
      <path id="Stroke_5" data-name="Stroke 5" d="M14.177,7.394h7.588" transform="translate(-3.031 -4.201)" fill="none" stroke="#2a4153" stroke-linecap="round" stroke-linejoin="round" stroke-width="2"/>
      <path id="Stroke_7" data-name="Stroke 7" d="M11.055,7.863c0-2.393-.8-3.191-3.191-3.191s-3.192.8-3.192,3.191.8,3.191,3.192,3.191S11.055,10.257,11.055,7.863Z" transform="translate(-4.671 -4.671)" fill="none" stroke="#2a4153" stroke-linecap="round" stroke-linejoin="round" stroke-width="2" fill-rule="evenodd"/>
    </g>
  </g>
</svg>
