<?xml version="1.0" encoding="utf-8"?>
<!-- Generator: Adobe Illustrator 26.2.0, SVG Export Plug-In . SVG Version: 6.00 Build 0)  -->
<svg version="1.1" id="Layer_1" xmlns="http://www.w3.org/2000/svg" xmlns:xlink="http://www.w3.org/1999/xlink" x="0px" y="0px"
	 viewBox="0 0 62 62" style="enable-background:new 0 0 62 62;" xml:space="preserve">
<style type="text/css">
	.st0{fill:#0078D4;}
	.st1{opacity:5.000000e-02;enable-background:new    ;}
	.st2{opacity:7.000000e-02;enable-background:new    ;}
	.st3{fill:#FFFFFF;}
</style>
<path class="st0" d="M62,53.4c0,4.8-3.9,8.6-8.6,8.6H8.6C3.9,62,0,58.1,0,53.4V8.6C0,3.9,3.9,0,8.6,0h44.8C58.1,0,62,3.9,62,8.6
	V53.4z"/>
<path class="st1" d="M41.3,53.4V36c0-2.9-1.4-4.6-3.8-4.6c-1.4,0-2.4,0.8-3.1,2.3c0,0.1-0.1,0.6-0.1,1.9l0,17.8H22.4V20.7h12.1v1.8
	c1.8-1.2,3.9-1.8,6.4-1.8c7.8,0,12.5,5.3,12.5,14.2l0,18.5H41.3z M8.6,53.4V20.7h6c-3.4,0-6-2.5-6-6c0-3.5,2.5-6,6.1-6
	c3.5,0,5.9,2.5,6,6c0,3.5-2.5,6.1-6.1,6.1h6.1v32.7H8.6z"/>
<path class="st2" d="M42.2,52.5V36c0-3.4-1.8-5.5-4.6-5.5c-2.2,0-3.3,1.6-3.9,2.9c-0.1,0.3-0.1,1.7-0.1,2.3l0,16.9H23.2v-31h10.3
	v2.8c1.4-1.4,3.6-2.8,7.3-2.8c7.3,0,11.6,5,11.6,13.4l0,17.6H42.2z M9.5,52.5v-31h10.3v31H9.5z M14.6,19.8c-3,0-5.1-2.2-5.1-5.2
	c0-3,2.2-5.2,5.2-5.2c3,0,5.1,2.1,5.1,5.1C19.8,17.6,17.6,19.8,14.6,19.8L14.6,19.8z"/>
<path class="st3" d="M10.3,22.4h8.6v29.3h-8.6V22.4z M14.6,18.9L14.6,18.9c-2.6,0-4.3-1.9-4.3-4.3c0-2.4,1.7-4.3,4.3-4.3
	c2.6,0,4.2,1.9,4.3,4.3C18.9,17,17.3,18.9,14.6,18.9z M51.7,51.7h-8.6V36c0-3.8-2.1-6.4-5.5-6.4c-2.6,0-4,1.7-4.7,3.4
	c-0.2,0.6-0.2,2.3-0.2,3.1v15.5h-8.6V22.4h8.6v4.5c1.2-1.9,3.2-4.5,8.2-4.5c6.2,0,10.8,3.9,10.8,12.5L51.7,51.7L51.7,51.7z"/>
</svg>
