<svg id="Group_461" data-name="Group 461" xmlns="http://www.w3.org/2000/svg" width="505.098" height="76.257" viewBox="0 0 505.098 76.257">
  <g id="Group_6" data-name="Group 6" transform="translate(0 0)">
    <g id="Group_5" data-name="Group 5">
      <path id="Path_15" data-name="Path 15" d="M242.506,20.975a55.955,55.955,0,0,1,13.849-1.9c4.523,0,7.444.827,8.746,2.517a5,5,0,0,1,1.285,3.167,8.544,8.544,0,0,1-.616,3.115,20.634,20.634,0,0,1-3.661,6.177c-.334.44-1.5,1.812-3.466,4.135s-3.5,4.153-4.611,5.526q18.583-19.534,26.15-19.551a3.181,3.181,0,0,1,3.081,1.848,4.085,4.085,0,0,1,.528,1.813,16.373,16.373,0,0,1-.107,1.742q-.157,2.587-4.328,9.626A91.559,91.559,0,0,1,290.582,29q5.968-4.435,10.189-4.435c1.6,0,2.411.687,2.411,2.042a4.465,4.465,0,0,1-.034.475,3.544,3.544,0,0,1-.071.422,16.027,16.027,0,0,1-2.465,4.945c-1.583,2.322-3.043,4.522-4.363,6.6l.192-.017a35.7,35.7,0,0,0,8.852-1.848,33.289,33.289,0,0,0,7.831-3.607,23.446,23.446,0,0,0,4.288-3.618V23.109c-.025-.012-.04-.027-.065-.04C315.96,22.348,313.777,22,310.8,22a47.216,47.216,0,0,0-12.071,2.164c-5.1,1.443-8.641,3.027-10.648,4.752-.581.492-.773.88-.615,1.179.158.281.194.44.07.475q-.16.053-.476-.159a2.85,2.85,0,0,1-1.424-1.619,5.386,5.386,0,0,1-.282-1.443.825.825,0,0,1,.265-.686q1.769-2.587,7.9-4.857a55.5,55.5,0,0,1,11.332-3.009,63.46,63.46,0,0,1,7.69-.722,22.269,22.269,0,0,1,4.135.317c.21.044.409.1.608.167A20.8,20.8,0,0,0,296.613,0H261.958a20.8,20.8,0,0,0-20.8,20.8v.556c.453-.126.884-.264,1.35-.381" transform="translate(-241.156)" fill="#ea8d72"/>
      <path id="Path_16" data-name="Path 16" d="M313.725,69.932a43.231,43.231,0,0,1-8.376,3.625,34.726,34.726,0,0,1-9.7,1.848c-.177.281-.352.545-.51.81a24.244,24.244,0,0,0,6.529,7.866c3.449,2.922,6.3,4.364,8.551,4.364a4.373,4.373,0,0,0,2.358-.634,2.356,2.356,0,0,0,1.181-1.619c0-.176.088-.229.263-.159a.518.518,0,0,1,.107.265c-.282,2.41-2.324,3.607-6.108,3.607a15.614,15.614,0,0,1-6.811-1.725,21.155,21.155,0,0,1-6.036-4.294,24.156,24.156,0,0,1-2.71-3.291q-7.048,11.906-7.039,16.911c0,1.549.457,2.394,1.337,2.535a2.246,2.246,0,0,0,1.76-.53.4.4,0,0,1,.617.09c.158.229.1.474-.212.773a1.548,1.548,0,0,1-1.074.44,11.3,11.3,0,0,1-1.442-.1,9.054,9.054,0,0,1-2.165-.651,4.948,4.948,0,0,1-2.293-1.876,5.372,5.372,0,0,1-.834-3.168,12.232,12.232,0,0,1,.558-3.526,35.163,35.163,0,0,1,3.167-5.9.8.8,0,0,0,.088-.14q3.3-5.254,9.768-14.237a36.628,36.628,0,0,0,2.059-3.168c.017-.035.051-.07.07-.106a8.613,8.613,0,0,0,1.354-3.731,1.423,1.423,0,0,0-1.636-1.584c-1.478,0-3.2.739-5.191,2.253a110.825,110.825,0,0,0-14.272,13.5c-1.425,2.322-3.22,5.05-5.35,8.165a1.3,1.3,0,0,1-1.073.687c-1.373,0-2.06-.317-2.06-.932a.815.815,0,0,1,.106-.4q8.527-14.835,9.573-19.006a12.173,12.173,0,0,0,.3-2.235,11.966,11.966,0,0,0-.053-1.267,1.725,1.725,0,0,0-1.848-1.479,8.263,8.263,0,0,0-4.065,1.689,76.468,76.468,0,0,0-10.964,9.116q-6.52,6.282-12.547,13.022a.51.51,0,0,1-.371.159c-1.988,2.5-3.219,3.748-3.713,3.748-.123,0-.193-.141-.193-.4,0-.493.951-1.936,2.886-4.329.264-.352,1.391-1.707,3.343-4.065,1.953-2.376,3.308-4.03,4.065-5a56.515,56.515,0,0,0,5.631-8.289,10.96,10.96,0,0,0,1.408-4.68q0-4.224-6.987-4.223h-.114a14.162,14.162,0,0,0-13.906,14.264V90.88a20.8,20.8,0,0,0,20.8,20.8h34.655a20.8,20.8,0,0,0,20.8-20.8V67.327a23.921,23.921,0,0,1-3.689,2.6" transform="translate(-241.157 -35.424)" fill="#ea8d72"/>
    </g>
  </g>
  <g id="Group_8" data-name="Group 8" transform="translate(94.46 21.679)">
    <path id="Path_28" data-name="Path 28" d="M15.944,264.009,9.052,274.333l-6.89-10.324H0v18.916H2.08V267.631l6.891,10.1H9.08L15.97,267.6v15.322H18.1V264.009Z" transform="translate(0 -249.648)" fill="#2a4153"/>
    <path id="Path_27" data-name="Path 27" d="M50.777,264.009l-6.432,9.457-6.377-9.457H35.375l7.863,11.43v7.485H45.4v-7.512l7.863-11.4Z" transform="translate(-13.85 -249.648)" fill="#2a4153"/>
    <g id="Group_7" data-name="Group 7" transform="translate(52.124 0)">
      <path id="Path_17" data-name="Path 17" d="M105.2,274.395,98.3,264.1H92.74v10.295H85.663v-32.17H100.37c7.583,0,12.134,4,12.134,10.614v.095a9.99,9.99,0,0,1-6.894,9.97l7.859,11.49Zm.137-21.186c0-3.034-2.114-4.6-5.561-4.6H92.74v9.239h7.17c3.447,0,5.423-1.838,5.423-4.552Z" transform="translate(-85.663 -241.671)" fill="#2a4153"/>
      <path id="Path_18" data-name="Path 18" d="M174.534,274.245l-2.941-7.216h-13.6l-2.941,7.216h-7.215l13.787-32.4h6.527l13.787,32.4Zm-9.744-23.9-4.273,10.434h8.548Z" transform="translate(-110.004 -241.521)" fill="#2a4153"/>
      <path id="Path_19" data-name="Path 19" d="M229.82,261.574V274.4h-7.078V261.712L210.38,242.225h8.272l7.676,12.914,7.813-12.914h8.042Z" transform="translate(-134.493 -241.671)" fill="#2a4153"/>
      <path id="Path_20" data-name="Path 20" d="M307.127,274.4v-21l-9.053,13.741h-.185l-8.962-13.6V274.4h-6.94v-32.17h7.63l8.457,13.6,8.455-13.6h7.63V274.4Z" transform="translate(-162.529 -241.671)" fill="#2a4153"/>
      <path id="Path_21" data-name="Path 21" d="M374.35,274.591c-9.928,0-17.049-7.4-17.049-16.548v-.089c0-9.146,7.213-16.639,17.141-16.639s17.051,7.4,17.051,16.547v.092c0,9.147-7.216,16.637-17.144,16.637m9.743-16.637c0-5.515-4.043-10.112-9.743-10.112s-9.65,4.5-9.65,10.02v.092c0,5.513,4.045,10.11,9.743,10.11s9.65-4.5,9.65-10.021Z" transform="translate(-192.017 -241.314)" fill="#2a4153"/>
      <path id="Path_22" data-name="Path 22" d="M458.5,274.4,442.92,253.944V274.4h-6.986v-32.17h6.527l15.074,19.808V242.226h6.986V274.4Z" transform="translate(-222.804 -241.671)" fill="#2a4153"/>
      <path id="Path_23" data-name="Path 23" d="M520.244,274.4H507.7V242.225h12.547c10.11,0,17.1,6.939,17.1,15.993v.092c0,9.054-6.987,16.086-17.1,16.086m9.7-16.086c0-5.7-3.908-9.7-9.7-9.7h-5.468v19.394h5.468c5.79,0,9.7-3.905,9.7-9.607Z" transform="translate(-250.901 -241.671)" fill="#2a4153"/>
      <rect id="Rectangle_3" data-name="Rectangle 3" width="2.487" height="2.835" transform="translate(291.879 29.889)" fill="#2a4153"/>
      <path id="Path_24" data-name="Path 24" d="M583.547,283.04a9.786,9.786,0,0,1,.082-19.565,9.855,9.855,0,0,1,7.377,3l-1.46,1.566a8.228,8.228,0,0,0-5.944-2.593c-4.19,0-7.324,3.379-7.324,7.784s3.163,7.836,7.324,7.836a8.216,8.216,0,0,0,6.107-2.73l1.4,1.378a9.845,9.845,0,0,1-7.567,3.325" transform="translate(-276.885 -249.991)" fill="#2a4153"/>
      <path id="Path_25" data-name="Path 25" d="M615.589,283.04a9.784,9.784,0,1,1,9.674-9.809,9.5,9.5,0,0,1-9.674,9.809m0-17.593c-4.323,0-7.4,3.459-7.4,7.784a7.528,7.528,0,0,0,7.459,7.836c4.322,0,7.4-3.459,7.4-7.784a7.526,7.526,0,0,0-7.459-7.836" transform="translate(-289.378 -249.991)" fill="#2a4153"/>
      <path id="Path_26" data-name="Path 26" d="M654.191,277.736h-.108l-6.891-10.105v15.293h-2.081V264.008h2.163l6.892,10.324,6.889-10.324h2.162v18.916h-2.133V267.6Z" transform="translate(-304.703 -250.199)" fill="#2a4153"/>
    </g>
  </g>
</svg>
