<svg xmlns="http://www.w3.org/2000/svg" viewBox="0 0 47.36 47.36"><defs><style>.cls-1{fill:#ea8d72;}</style></defs><g id="Layer_2" data-name="Layer 2"><g id="Layer_1-2" data-name="Layer 1"><g id="Group_438" data-name="Group 438"><g id="_7148740_category_variety_random_shuffle_icon" data-name=" 7148740 category variety random shuffle icon"><path id="Path_223" data-name="Path 223" class="cls-1" d="M16,20.32H4.43A4.43,4.43,0,0,1,0,15.89V4.43A4.43,4.43,0,0,1,4.43,0H16a4.44,4.44,0,0,1,4.43,4.43V15.89A4.44,4.44,0,0,1,16,20.32Z"/><path id="Path_224" data-name="Path 224" class="cls-1" d="M16.09,47.36H4.49A4.43,4.43,0,0,1,.06,42.92V31.46A4.44,4.44,0,0,1,4.49,27h11.6a4.44,4.44,0,0,1,4.43,4.43V42.92A4.44,4.44,0,0,1,16.09,47.36Z"/><path id="Path_225" data-name="Path 225" class="cls-1" d="M42.92,47.36H31.32a4.43,4.43,0,0,1-4.43-4.43V31.46A4.44,4.44,0,0,1,31.32,27h11.6a4.44,4.44,0,0,1,4.43,4.43V42.92A4.43,4.43,0,0,1,42.92,47.36Z"/><path id="Path_226" data-name="Path 226" class="cls-1" d="M37.13,20.32a10.2,10.2,0,1,1,.07,0Z"/></g></g></g></g></svg>