<svg xmlns="http://www.w3.org/2000/svg" width="324.057" height="59.925" viewBox="0 0 324.057 59.925">
  <g id="Group_2053" data-name="Group 2053" transform="translate(-812 -1750.5)">
    <path id="Path_621" data-name="Path 621" d="M9.3,0H313.53c5.138,0,9.3,3.582,9.3,8V49.479c0,4.418-4.165,8-9.3,8H9.3c-5.138,0-9.3-3.582-9.3-8V8C0,3.582,4.165,0,9.3,0Z" transform="translate(813.223 1751.723)" fill="#ea8d72" opacity="0.59"/>
    <path id="Path_950" data-name="Path 950" d="M-109.71-25.128V0h-5.04V-16.344L-121.482,0H-125.3l-6.768-16.344V0h-5.04V-25.128h5.724l7.992,18.684,7.992-18.684Zm21.6,0v4.068H-98.586v6.444h8.028v4h-8.028V0h-5.04V-25.128Zm24.66,0-8.5,16.38V0h-5.04V-8.748l-8.532-16.38h5.688l5.4,11.484,5.364-11.484Zm37.62,0L-32.85,0h-5.94l-4.716-17.892L-48.438,0l-5.9.036L-61.11-25.128h5.4l4.428,19.512,5.112-19.512h5.616l4.824,19.4,4.464-19.4ZM-16.4-21.06v6.3h8.46v4H-16.4V-4.1h9.54V0h-14.58V-25.164h14.58v4.1ZM7.614-25.128A15.009,15.009,0,0,1,14.58-23.58a11.059,11.059,0,0,1,4.644,4.41,13.137,13.137,0,0,1,1.638,6.642,12.938,12.938,0,0,1-1.638,6.606A11.125,11.125,0,0,1,14.58-1.548,15.009,15.009,0,0,1,7.614,0H-1.17V-25.128ZM7.434-4.284a8.277,8.277,0,0,0,6.12-2.16,8.227,8.227,0,0,0,2.16-6.084,8.416,8.416,0,0,0-2.16-6.138,8.16,8.16,0,0,0-6.12-2.214H3.87v16.6ZM34.542-25.128a15.009,15.009,0,0,1,6.966,1.548,11.059,11.059,0,0,1,4.644,4.41,13.137,13.137,0,0,1,1.638,6.642,12.938,12.938,0,0,1-1.638,6.606,11.125,11.125,0,0,1-4.644,4.374A15.009,15.009,0,0,1,34.542,0H25.758V-25.128Zm-.18,20.844a8.277,8.277,0,0,0,6.12-2.16,8.227,8.227,0,0,0,2.16-6.084,8.416,8.416,0,0,0-2.16-6.138,8.16,8.16,0,0,0-6.12-2.214H30.8v16.6ZM57.726-25.128V0h-5.04V-25.128ZM85.3,0h-5.04L68.85-17.244V0H63.81V-25.164h5.04L80.262-7.884v-17.28H85.3Zm23.58-17.568a5.9,5.9,0,0,0-2.376-2.412,7.231,7.231,0,0,0-3.528-.828,7.713,7.713,0,0,0-3.96,1.008,6.962,6.962,0,0,0-2.7,2.88,9.242,9.242,0,0,0-.972,4.32,9.265,9.265,0,0,0,.99,4.392,7.009,7.009,0,0,0,2.754,2.88,8.128,8.128,0,0,0,4.1,1.008,7.119,7.119,0,0,0,4.716-1.53,7.3,7.3,0,0,0,2.412-4.266h-8.64v-3.852H115.29v4.392a11.8,11.8,0,0,1-2.16,4.86,12.2,12.2,0,0,1-4.266,3.582,12.543,12.543,0,0,1-5.85,1.35,13.245,13.245,0,0,1-6.57-1.638,11.918,11.918,0,0,1-4.608-4.554A13.064,13.064,0,0,1,90.162-12.6a13.163,13.163,0,0,1,1.674-6.642,11.882,11.882,0,0,1,4.608-4.572,13.173,13.173,0,0,1,6.534-1.638,13.075,13.075,0,0,1,7.38,2.07,10.57,10.57,0,0,1,4.32,5.814ZM128.826.252a11.935,11.935,0,0,1-4.734-.9,7.773,7.773,0,0,1-3.33-2.592,6.825,6.825,0,0,1-1.26-4h5.4A3.492,3.492,0,0,0,126-4.788a3.89,3.89,0,0,0,2.718.9,4.181,4.181,0,0,0,2.772-.846A2.751,2.751,0,0,0,132.5-6.948a2.558,2.558,0,0,0-.684-1.836,4.792,4.792,0,0,0-1.71-1.134,28.3,28.3,0,0,0-2.826-.918,30.266,30.266,0,0,1-3.978-1.422,6.968,6.968,0,0,1-2.628-2.124,6.053,6.053,0,0,1-1.1-3.8,6.791,6.791,0,0,1,1.116-3.888,7.1,7.1,0,0,1,3.132-2.538,11.4,11.4,0,0,1,4.608-.882,10,10,0,0,1,6.318,1.89,7.007,7.007,0,0,1,2.682,5.274h-5.544a2.88,2.88,0,0,0-1.1-2.142,4.137,4.137,0,0,0-2.718-.846,3.5,3.5,0,0,0-2.358.756,2.733,2.733,0,0,0-.882,2.2,2.27,2.27,0,0,0,.666,1.674,5.079,5.079,0,0,0,1.656,1.08q.99.414,2.79.954a29.31,29.31,0,0,1,4,1.44,7.176,7.176,0,0,1,2.664,2.16,6,6,0,0,1,1.116,3.78,7.11,7.11,0,0,1-1.044,3.744,7.37,7.37,0,0,1-3.06,2.754A10.437,10.437,0,0,1,128.826.252Z" transform="translate(960.007 1792.962)" fill="#2a4153"/>
    <g id="Rectangle_1888" data-name="Rectangle 1888" transform="translate(812 1750.5)" fill="none" stroke="#2a4153" stroke-width="1" stroke-dasharray="2">
      <rect width="324.057" height="59.925" rx="8" stroke="none"/>
      <rect x="0.5" y="0.5" width="323.057" height="58.925" rx="7.5" fill="none"/>
    </g>
    <g id="copy-svgrepo-com" transform="translate(1106.21 1766.742)">
      <path id="Path_617" data-name="Path 617" d="M65.9,0H51V20.61h4.346V4.966H65.9Z" transform="translate(-51)" fill="#2a4153"/>
      <path id="Path_618" data-name="Path 618" d="M306,125v4.346h4.346Z" transform="translate(-290.17 -117.24)" fill="#2a4153"/>
      <path id="Path_619" data-name="Path 619" d="M158.76,117.139V110H151v20.61h14.9V117.139Z" transform="translate(-144.792 -103.171)" fill="#2a4153"/>
    </g>
  </g>
</svg>
