<?xml version="1.0" encoding="utf-8"?>
<!-- Generator: Adobe Illustrator 26.5.0, SVG Export Plug-In . SVG Version: 6.00 Build 0)  -->
<svg version="1.1" id="Layer_1" xmlns="http://www.w3.org/2000/svg" xmlns:xlink="http://www.w3.org/1999/xlink" x="0px" y="0px"
	 viewBox="0 0 280.1 59.9" style="enable-background:new 0 0 280.1 59.9;" xml:space="preserve">
<style type="text/css">
	.st0{opacity:0.59;fill:#EA8D72;enable-background:new    ;}
	.st1{enable-background:new    ;}
	.st2{fill:#2A4153;}
	.st3{fill:none;}
	.st4{fill:none;stroke:#2A4153;stroke-dasharray:2;}
</style>
<g id="Group_2053" transform="translate(-812 -1750.5)">
	<path id="Path_621" class="st0" d="M821.2,1751.7h261.6c4.4,0,8,3.6,8,8v41.5c0,4.4-3.6,8-8,8H821.2c-4.4,0-8-3.6-8-8v-41.5
		C813.2,1755.3,816.8,1751.7,821.2,1751.7z"/>
	<g class="st1">
		<path class="st2" d="M852.7,1767v25.1h-5v-16.3l-6.7,16.3h-3.8l-6.8-16.3v16.3h-5V1767h5.7l8,18.7l8-18.7H852.7z"/>
		<path class="st2" d="M871.7,1792.2l-5.5-9.8h-2.4v9.8h-5V1767h9.4c1.9,0,3.6,0.3,5,1s2.4,1.6,3.1,2.8s1,2.5,1,3.9
			c0,1.7-0.5,3.1-1.4,4.5s-2.4,2.2-4.3,2.8l6,10.2L871.7,1792.2L871.7,1792.2z M863.8,1778.6h4.2c1.4,0,2.4-0.3,3.1-1s1-1.6,1-2.8
			c0-1.2-0.3-2-1-2.7c-0.7-0.6-1.7-1-3.1-1h-4.2V1778.6z"/>
		<path class="st2" d="M898.4,1767v4.1H888v6.4h8v4h-8v10.6h-5V1767H898.4z"/>
		<path class="st2" d="M908.1,1771.1v6.3h8.5v4h-8.5v6.7h9.5v4.1H903V1767h14.6v4.1H908.1z"/>
		<path class="st2" d="M927.3,1791.5c-1.4-0.6-2.5-1.5-3.3-2.6s-1.2-2.5-1.3-4h5.4c0.1,1,0.4,1.8,1.1,2.4c0.7,0.6,1.6,0.9,2.7,0.9
			c1.2,0,2.1-0.3,2.8-0.8c0.7-0.6,1-1.3,1-2.2c0-0.7-0.2-1.4-0.7-1.8c-0.5-0.5-1-0.9-1.7-1.1c-0.7-0.3-1.6-0.6-2.8-0.9
			c-1.6-0.5-3-1-4-1.4s-1.9-1.2-2.6-2.1c-0.7-0.9-1.1-2.2-1.1-3.8c0-1.5,0.4-2.8,1.1-3.9c0.7-1.1,1.8-1.9,3.1-2.5s2.9-0.9,4.6-0.9
			c2.6,0,4.7,0.6,6.3,1.9s2.5,3,2.7,5.3h-5.5c0-0.9-0.4-1.6-1.1-2.1c-0.7-0.6-1.6-0.8-2.7-0.8c-1,0-1.8,0.3-2.4,0.8
			c-0.6,0.5-0.9,1.2-0.9,2.2c0,0.7,0.2,1.2,0.7,1.7c0.4,0.4,1,0.8,1.7,1.1c0.7,0.3,1.6,0.6,2.8,1c1.6,0.5,3,1,4,1.4
			c1,0.5,1.9,1.2,2.7,2.2c0.7,1,1.1,2.2,1.1,3.8c0,1.3-0.3,2.6-1,3.7c-0.7,1.2-1.7,2.1-3.1,2.8c-1.3,0.7-2.9,1-4.8,1
			C930.2,1792.4,928.7,1792.1,927.3,1791.5z"/>
		<path class="st2" d="M963.4,1767v4.1h-6.7v21.1h-5v-21.1H945v-4.1H963.4z"/>
		<path class="st2" d="M973.2,1767v25.1h-5V1767H973.2z"/>
		<path class="st2" d="M1001.8,1767l-9.2,25.1h-6.1l-9.2-25.1h5.4l6.9,20l6.9-20H1001.8z"/>
		<path class="st2" d="M1021.4,1787.4h-10l-1.7,4.8h-5.3l9-25.2h5.9l9,25.2h-5.3L1021.4,1787.4z M1020,1783.3l-3.6-10.5l-3.6,10.5
			H1020z"/>
		<path class="st2" d="M1037.8,1788.2h8.3v4h-13.3V1767h5V1788.2z"/>
	</g>
	<g id="Rectangle_1888" transform="translate(812 1750.5)">
		<path class="st3" d="M8,0h264.1c4.4,0,8,3.6,8,8v43.9c0,4.4-3.6,8-8,8H8c-4.4,0-8-3.6-8-8V8C0,3.6,3.6,0,8,0z"/>
		<path class="st4" d="M8,0.5h264.1c4.1,0,7.5,3.4,7.5,7.5v43.9c0,4.1-3.4,7.5-7.5,7.5H8c-4.1,0-7.5-3.4-7.5-7.5V8
			C0.5,3.9,3.9,0.5,8,0.5z"/>
	</g>
	<g id="copy-svgrepo-com" transform="translate(1060.21 1766.742)">
		<path id="Path_617" class="st2" d="M14.9,0H0v20.6h4.3V5h10.6C14.9,5,14.9,0,14.9,0z"/>
		<path id="Path_618" class="st2" d="M15.8,7.8v4.3h4.3L15.8,7.8z"/>
		<path id="Path_619" class="st2" d="M14,14V6.8H6.2v20.6h14.9V14H14z"/>
	</g>
</g>
</svg>
