<svg xmlns="http://www.w3.org/2000/svg" width="29.006" height="33.127" viewBox="0 0 29.006 33.127">
  <g id="Layer_2" data-name="Layer 2" transform="translate(-23.181 -20.326)">
    <g id="Layer_1" data-name="Layer 1" transform="translate(23.181 20.326)">
      <path id="Path_515" data-name="Path 515" d="M39.719,47.617c.31-.187.49-.274.649-.389,2.4-1.593,4.794-3.208,7.209-4.787a1.146,1.146,0,0,0,.6-1.089V32.4a1.1,1.1,0,0,0-.57-1.038c-3.136-2.076-6.265-4.153-9.372-6.258a.8.8,0,0,0-1.081,0c-.613.454-1.269.865-1.99,1.348.274.209.469.375.678.512,3.035,2.033,6.085,4.052,9.12,6.092a2.033,2.033,0,1,1-2.321,3.316l-7.209-4.8-4.866-3.244a2.064,2.064,0,0,1,0-3.706c1.9-1.262,3.8-2.509,5.674-3.792a2.329,2.329,0,0,1,2.884,0q5.969,4.016,11.96,7.981a2.257,2.257,0,0,1,1.1,2.033q0,6.07,0,12.126a2.163,2.163,0,0,1-1.017,1.947q-6.07,4.016-12.126,8.082a2.242,2.242,0,0,1-2.718,0q-6.02-4.066-12.069-8.053a2.163,2.163,0,0,1-1.067-1.983q0-6.067,0-12.134a2.033,2.033,0,0,1,3.259-1.781L38.7,37.221a2.213,2.213,0,0,1,1.009,1.968v7.62ZM27.29,34.51a4.231,4.231,0,0,0-.087.526q0,3.244,0,6.489a1.2,1.2,0,0,0,.512.793C30.13,43.962,32.567,45.576,35,47.2c.166.108.339.195.591.339V40.652a1.089,1.089,0,0,0-.57-1.031c-2.408-1.586-4.8-3.194-7.209-4.787C27.722,34.769,27.549,34.676,27.29,34.51Z" transform="translate(-23.181 -20.326)" fill="#2a4153"/>
    </g>
  </g>
</svg>
