<?xml version="1.0" encoding="UTF-8"?><svg id="a" xmlns="http://www.w3.org/2000/svg" viewBox="0 0 48.31 48.32"><defs><style>.b{fill:#2a4153;}.c{isolation:isolate;}</style></defs><g class="c"><path class="b" d="M23.59,48.32c-2.16-.48-3.49-2.05-4.85-3.61-.43-.5-.91-.95-1.38-1.42-.6-.61-1.36-.84-2.18-.83-1.44,0-2.89,.08-4.33,.09-.48,0-.98-.05-1.45-.15-2.23-.48-3.52-2.04-3.61-4.43-.04-1,.04-2.01,.07-3.01,0-.19,0-.38,.03-.56,.25-2.01-.59-3.49-2.12-4.73-.99-.81-1.94-1.71-2.73-2.72-1.4-1.77-1.36-3.75-.02-5.57,.39-.53,.85-1.01,1.32-1.47,.47-.46,.96-.92,1.49-1.3,1.86-1.35,2.29-3.2,2.04-5.37-.13-1.11-.14-2.27,0-3.38,.33-2.56,1.96-3.99,4.55-4.07,.99-.03,1.98,.07,2.97,.07,.86,0,1.73-.02,2.58-.1,.32-.03,.69-.18,.93-.38,.63-.53,1.22-1.12,1.81-1.71,.82-.82,1.56-1.73,2.45-2.47,1.9-1.57,4.02-1.6,5.94-.05,.92,.74,1.69,1.68,2.52,2.53,.44,.45,.88,.9,1.32,1.34,.61,.62,1.39,.85,2.23,.85,1.43-.01,2.86-.09,4.28-.09,.61,0,1.23,.08,1.81,.23,2,.52,3.19,2.11,3.27,4.37,.03,1-.04,2.01-.07,3.01,0,.17,0,.35-.03,.52-.25,2.03,.57,3.54,2.15,4.76,.73,.56,1.39,1.23,2.05,1.88,.86,.84,1.39,1.88,1.68,3.04v1.13c-.27,1.03-.69,1.98-1.43,2.76-.55,.58-1.13,1.13-1.71,1.68-.58,.55-1.19,1.07-1.76,1.64-.58,.57-.93,1.26-.95,2.09-.01,.75,.02,1.51,.02,2.26,0,1.18,.07,2.36-.06,3.52-.22,1.95-1.47,3.26-3.38,3.69-.5,.11-1.02,.18-1.54,.18-1.44,0-2.89-.08-4.33-.09-.86,0-1.64,.24-2.27,.87-.44,.44-.9,.88-1.31,1.35-1.36,1.57-2.7,3.16-4.88,3.64h-1.13Zm-14.87-11.46c.04,.41,.07,1,.16,1.59,.09,.55,.45,.91,1,1,.52,.08,1.06,.13,1.59,.12,1.32-.02,2.64-.1,3.96-.1,1.19,0,2.32,.3,3.25,1.08,.79,.66,1.53,1.39,2.26,2.12,.69,.68,1.31,1.45,2.03,2.09,.87,.77,1.51,.78,2.38,0,.74-.65,1.4-1.4,2.05-2.14,1.23-1.39,2.51-2.72,4.47-3.01,.85-.12,1.72-.16,2.58-.17,1.1,0,2.2,.11,3.3,.09,1.28-.02,1.74-.52,1.8-1.8,.02-.33,.03-.66,.01-.99-.04-.82-.09-1.63-.14-2.45-.12-2.25,.4-4.28,2.09-5.88,.38-.36,.77-.69,1.15-1.05,.71-.67,1.45-1.31,2.09-2.03,.76-.86,.77-1.5,.02-2.35-.67-.76-1.44-1.44-2.2-2.12-1.38-1.23-2.71-2.5-2.96-4.44-.14-1.11-.09-2.25-.12-3.38-.02-1.03,.01-2.07-.05-3.1-.04-.61-.46-.98-1.07-1.09-.28-.05-.56-.11-.84-.1-1.07,.03-2.13,.1-3.2,.12-1.44,.03-2.87-.02-4.16-.76-1.09-.63-1.99-1.47-2.79-2.44-.5-.61-1.02-1.19-1.59-1.74-1.27-1.24-2.02-1.25-3.28,0-.73,.72-1.36,1.53-2.06,2.27-1.04,1.09-2.12,2.15-3.67,2.42-.95,.17-1.93,.22-2.9,.23-1.1,.02-2.2-.11-3.3-.09-1.3,.02-1.76,.52-1.82,1.83-.02,.42-.03,.85,0,1.27,.03,.72,.1,1.44,.13,2.16,.08,2.04-.26,3.96-1.76,5.49-.48,.49-.99,.96-1.5,1.43-.59,.55-1.21,1.06-1.76,1.64-1.15,1.19-1.14,1.95,.02,3.15,.59,.61,1.22,1.19,1.88,1.72,2.21,1.76,3.34,3.99,3.12,6.85-.06,.78-.11,1.57-.17,2.54Z"/><path class="b" d="M16.61,33.21c-.6-.05-1.07-.39-1.35-1-.27-.59-.15-1.1,.37-1.62,2.39-2.39,4.78-4.78,7.17-7.17,2.59-2.59,5.18-5.18,7.77-7.77,.74-.74,1.63-.71,2.29,.07,.46,.54,.47,1.27,.04,1.82-.09,.11-.19,.21-.29,.31-4.91,4.91-9.82,9.82-14.73,14.74-.33,.33-.67,.62-1.25,.62Z"/><path class="b" d="M18.11,22.64c-2.49,0-4.52-2.05-4.51-4.55,.01-2.47,2.05-4.49,4.52-4.48,2.49,0,4.52,2.05,4.5,4.55-.01,2.47-2.04,4.49-4.52,4.48Zm1.53-4.51c0-.83-.69-1.53-1.53-1.53-.82,0-1.5,.67-1.51,1.49-.02,.83,.67,1.54,1.5,1.55,.84,0,1.54-.68,1.54-1.52Z"/><path class="b" d="M30.21,34.72c-2.49,0-4.53-2.03-4.52-4.53,0-2.47,2.03-4.5,4.5-4.5,2.5,0,4.53,2.03,4.52,4.53,0,2.47-2.03,4.5-4.5,4.5Zm-.03-2.99c.84,0,1.54-.68,1.54-1.52,0-.82-.67-1.51-1.48-1.53-.84-.02-1.55,.65-1.56,1.49-.02,.83,.67,1.54,1.5,1.55Z"/></g></svg>