<svg xmlns="http://www.w3.org/2000/svg" width="191.069" height="191.069" viewBox="0 0 191.069 191.069">
  <g id="Group_1908" data-name="Group 1908" transform="translate(-2514.904 9597.836)">
    <path id="Path_544" data-name="Path 544" d="M256.1,105.512A95.534,95.534,0,1,1,160.568,9.978,95.534,95.534,0,0,1,256.1,105.512" transform="translate(2449.87 -9607.814)" fill="#f5f5f5"/>
    <path id="Path_545" data-name="Path 545" d="M124.574,85.436a7.894,7.894,0,1,1-7.857-7.93,7.892,7.892,0,0,1,7.857,7.93" transform="translate(2490.149 -9545.648)" fill="#3a5265"/>
    <path id="Path_546" data-name="Path 546" d="M108.279,83.932a21.871,21.871,0,0,1,31.65-.417c4.031,4.06,10.34-2.188,6.309-6.25a30.852,30.852,0,0,0-44.208.359c-3.939,4.135,2.3,10.456,6.25,6.307" transform="translate(2482.773 -9554.293)" fill="#3a5265"/>
    <path id="Path_547" data-name="Path 547" d="M94.416,69.6c12-10.377,26.333-16.909,42.38-16.949,15.9-.038,31.588,5.608,43.236,16.546,4.162,3.908,10.483-2.326,6.307-6.248a72.094,72.094,0,0,0-49.5-19.177c-18.467.046-34.876,7.594-48.672,19.521-4.331,3.743,1.942,10.031,6.25,6.307" transform="translate(2469.822 -9576.704)" fill="#3a5265"/>
    <path id="Path_548" data-name="Path 548" d="M99.812,79a43.429,43.429,0,0,1,63.821-.912c3.991,4.1,10.3-2.149,6.307-6.25a52.293,52.293,0,0,0-76.378.855C89.689,76.876,95.921,83.2,99.812,79" transform="translate(2475.009 -9565.737)" fill="#3a5265"/>
    <path id="Path_549" data-name="Path 549" d="M175.137,57.941A24.227,24.227,0,1,1,150.91,33.715a24.226,24.226,0,0,1,24.226,24.226" transform="translate(2506.623 -9585.962)" fill="#f0a187"/>
    <rect id="Rectangle_1781" data-name="Rectangle 1781" width="21.756" height="4.854" transform="translate(2648.718 -9522.825) rotate(-45)" fill="#fff"/>
    <rect id="Rectangle_1782" data-name="Rectangle 1782" width="4.854" height="21.756" transform="translate(2648.718 -9534.776) rotate(-45)" fill="#fff"/>
  </g>
</svg>
