<svg xmlns="http://www.w3.org/2000/svg" width="27.003" height="23.962" viewBox="0 0 27.003 23.962">
  <g id="Delivery" transform="translate(-5.3 -3.752)">
    <g id="Group_1900" transform="translate(5.3 3.752)">
      <path id="Path_473" d="M32.3,26.1H29.1a.349.349,0,0,0-.2.1,2.27,2.27,0,0,1-3.1,1.2,2.031,2.031,0,0,1-1.2-1.2c0-.1-.1-.1-.2-.1H13.3c-.2,0-.4.1-.4.3a2.17,2.17,0,0,1-2.1,1.3,2.227,2.227,0,0,1-2.1-1.3c-.1-.2-.2-.3-.4-.2h-3V11.9h8.2c0-.1-.1-.2-.1-.3a5.853,5.853,0,0,1,11-4c.1.3.2.6.3,1a6.026,6.026,0,0,1-1.5,5.1c-.1.1-.1.2-.2.4v1.5h5a.52.52,0,0,1,.4.2c.4,1.2.9,2.3,1.3,3.5,0,.1.1.2.2.3a21.4,21.4,0,0,0,2.2,1h.1ZM18.7,17.8l-.1-.1c-1.4-1.4-2.8-2.8-4.1-4.2a.758.758,0,0,0-.4-.2H6.7V24.5H8.2a.52.52,0,0,0,.4-.2,2.429,2.429,0,0,1,2.1-1.4,2.4,2.4,0,0,1,2.2,1.4.52.52,0,0,0,.4.2h7.9V15.3Zm0-2.2h0l3.1-3.1a4.258,4.258,0,0,0-.2-6A4.359,4.359,0,0,0,18,5.4a4,4,0,0,0-3.3,2.7,3.855,3.855,0,0,0,.7,4.2c1,1.1,2.2,2.1,3.3,3.3Zm4,1.5v7.4h1.6c.1,0,.1-.1.2-.1a2.27,2.27,0,0,1,3.1-1.2,2.031,2.031,0,0,1,1.2,1.2c0,.1.1.1.2.1h1.7V21.7a.215.215,0,0,0-.2-.2c-.4-.2-.9-.4-1.3-.6a.6.6,0,0,0-.4-.1H24.4V17.1H22.7Zm3.2,0v2.1H28c-.3-.7-.5-1.3-.8-2,0-.1-.1-.1-.2-.1ZM11.5,25.3a.86.86,0,0,0-.8-.8.8.8,0,1,0,0,1.6c.4.1.8-.3.8-.8Zm15.2.8a.789.789,0,0,0,.8-.8.736.736,0,0,0-.8-.8.789.789,0,0,0-.8.8.736.736,0,0,0,.8.8Z" transform="translate(-5.3 -3.752)" fill="#ea8d72"/>
    </g>
    <path id="Path_520" d="M18.7,12.2A2.737,2.737,0,0,1,16,9.6a2.651,2.651,0,1,1,5.3-.1h0A2.606,2.606,0,0,1,18.7,12.2Z" transform="translate(0.001 0)" fill="#ea8d72"/>
  </g>
</svg>
