<svg xmlns="http://www.w3.org/2000/svg" width="27.95" height="28.144" viewBox="0 0 27.95 28.144">
  <g id="Group_1894" data-name="Group 1894" transform="translate(-56.064 -1156.457)">
    <g id="Group_1895" data-name="Group 1895" transform="translate(56.064 1156.457)">
      <path id="Path_375" data-name="Path 375" d="M13.477,0c-.352.039-.7.074-1.053.116a13.663,13.663,0,0,0-8.5,4.166A13.59,13.59,0,0,0,.12,12.211,13.887,13.887,0,0,0,11.187,27.644a13.447,13.447,0,0,0,11.742-3.01,13.531,13.531,0,0,0,4.77-8.442,18.435,18.435,0,0,0,.174-2.115.914.914,0,0,0-.891-1,.969.969,0,0,0-.93,1,11.931,11.931,0,0,1-7.427,11.067,10.5,10.5,0,0,1-4.043.93A11.878,11.878,0,0,1,3.989,20.9a11.232,11.232,0,0,1-2.122-5.658A11.871,11.871,0,0,1,5.894,4.87a11.625,11.625,0,0,1,6.459-2.939A12.113,12.113,0,0,1,24.543,8.1c.081.142.149.291.242.481-.132,0-.226.032-.323.036H22.848a.895.895,0,0,0,.016,1.789c1.272,0,2.548-.019,3.82,0a1.068,1.068,0,0,0,1.266-.736V4.97a.559.559,0,0,1-.052-.1.924.924,0,0,0-1-.7.94.94,0,0,0-.788,1.017v1.8h-.081l-.142-.216A13.813,13.813,0,0,0,15.427.113C15.1.071,14.781.039,14.458,0Z" transform="translate(0 0.196)" fill="#26a541"/>
      <text id="_" data-name="₹" transform="translate(7.127 23)" fill="#26a541" font-size="21" font-family="SegoeUI-Bold, Segoe UI" font-weight="700"><tspan x="0" y="0">₹</tspan></text>
    </g>
  </g>
</svg>
