<svg xmlns="http://www.w3.org/2000/svg" viewBox="0 0 43.01 42.99"><defs><style>.cls-1{fill:#2a4153;}</style></defs><g id="Layer_2" data-name="Layer 2"><g id="Layer_1-2" data-name="Layer 1"><g id="return"><path class="cls-1" d="M22.69,0c.67.09,1.33.15,2,.26a21.12,21.12,0,0,1,15,9.72A21,21,0,0,1,43,22.14,21.46,21.46,0,0,1,.82,27.05,20.89,20.89,0,0,1,.1,21.66,1.43,1.43,0,0,1,1.5,20.1a1.46,1.46,0,0,1,1.43,1.54c.34,8,4.12,13.74,11.4,17A18.63,18.63,0,1,0,5.08,12.8c-.06.12-.11.25-.22.45H7.72a1.41,1.41,0,1,1,0,2.81c-1.95,0-3.89,0-5.84,0A1.69,1.69,0,0,1,0,15V7.56a.86.86,0,0,0,.07-.1,1.43,1.43,0,0,1,1.6-1A1.45,1.45,0,0,1,2.85,8v2.52a3.25,3.25,0,0,0,0,.36,3.48,3.48,0,0,0,.22-.3A20.17,20.17,0,0,1,6,6.76,21.27,21.27,0,0,1,18.47.25c.68-.1,1.36-.17,2-.25Z"/><path class="cls-1" d="M22.93,28.91c1.39-.92,2.69-1.78,4-2.65.51-.34,1-.67,1.53-1a.74.74,0,0,0,.26-.46c0-2.17,0-4.35,0-6.52a.58.58,0,0,0-.24-.43l-6.7-4.48a.51.51,0,0,0-.37-.07c-.53.33-1.05.69-1.61,1.07.17.11.29.21.41.29l6.29,4.19a1.47,1.47,0,0,1,.74,1.07,1.36,1.36,0,0,1-.65,1.4A1.39,1.39,0,0,1,25,21.23l-5-3.36c-1.12-.75-2.26-1.5-3.38-2.26a1.43,1.43,0,0,1,0-2.54l4-2.68a1.53,1.53,0,0,1,1.87,0q4.16,2.78,8.32,5.54a1.57,1.57,0,0,1,.75,1.41q0,4.16,0,8.32a1.59,1.59,0,0,1-.77,1.43l-8.29,5.52a1.5,1.5,0,0,1-1.94,0l-8.21-5.47a1.65,1.65,0,0,1-.82-1.5c0-2.74,0-5.49,0-8.23A1.44,1.44,0,0,1,12.26,16a1.48,1.48,0,0,1,1.61.18l8.25,5.5a1.67,1.67,0,0,1,.82,1.54c0,1.72,0,3.45,0,5.17Zm-8.55-9a1.35,1.35,0,0,0-.05.29c0,1.54,0,3.08,0,4.62a.67.67,0,0,0,.28.45q2.53,1.71,5.09,3.4l.39.23c0-1.72,0-3.36,0-5,0-.13-.16-.29-.28-.37-1-.68-2-1.35-3-2Z"/></g></g></g></svg>