<svg id="Layer_1" data-name="Layer 1" xmlns="http://www.w3.org/2000/svg" width="41.664" height="41.66" viewBox="0 0 41.664 41.66">
  <path id="Path_375" data-name="Path 375" d="M21.576,0c.525.058,1.049.111,1.569.173A20.368,20.368,0,0,1,35.81,6.383,20.257,20.257,0,0,1,41.486,18.2a20.7,20.7,0,0,1-16.5,23.006,20.045,20.045,0,0,1-17.5-4.487A20.17,20.17,0,0,1,.375,24.137a27.478,27.478,0,0,1-.26-3.153,1.362,1.362,0,0,1,1.329-1.5,1.444,1.444,0,0,1,1.386,1.492c.323,7.75,4.029,13.248,11.072,16.5a15.645,15.645,0,0,0,6.027,1.386,17.706,17.706,0,0,0,15.79-7.7,16.743,16.743,0,0,0,3.163-8.434,17.7,17.7,0,0,0-6-15.467,17.33,17.33,0,0,0-9.628-4.381A18.057,18.057,0,0,0,5.079,12.073c-.12.212-.221.433-.361.717.2,0,.337.048.481.053H7.606a1.333,1.333,0,1,1-.024,2.667c-1.9,0-3.8-.029-5.695,0A1.591,1.591,0,0,1,0,14.413v-7a.833.833,0,0,0,.077-.144,1.377,1.377,0,0,1,1.492-1.04A1.4,1.4,0,0,1,2.744,7.741v2.677h.12l.212-.323A20.59,20.59,0,0,1,18.668.168C19.15.106,19.631.058,20.112,0Z" fill="#ea8d72"/>
  <path id="Path_376" data-name="Path 376" d="M34.223,38.549c.207-.125.327-.183.433-.26,1.6-1.064,3.2-2.142,4.814-3.2a.765.765,0,0,0,.4-.727V28.387a.732.732,0,0,0-.38-.693c-2.094-1.386-4.183-2.773-6.258-4.178a.534.534,0,0,0-.722,0c-.409.3-.847.578-1.329.9.183.14.313.25.453.342,2.027,1.358,4.063,2.705,6.09,4.068a1.358,1.358,0,1,1-1.55,2.214l-4.814-3.206L28.11,25.667a1.378,1.378,0,0,1,0-2.474c1.266-.842,2.537-1.675,3.789-2.532a1.555,1.555,0,0,1,1.926,0q3.986,2.681,7.986,5.329a1.507,1.507,0,0,1,.737,1.358v8.1a1.444,1.444,0,0,1-.679,1.3q-4.053,2.681-8.1,5.4a1.5,1.5,0,0,1-1.815,0q-4.02-2.715-8.058-5.377a1.444,1.444,0,0,1-.712-1.324v-8.1a1.358,1.358,0,0,1,2.176-1.189l8.184,5.459a1.478,1.478,0,0,1,.674,1.314v5.088Zm-8.3-8.752a2.826,2.826,0,0,0-.058.351v4.332a.8.8,0,0,0,.342.53c1.613,1.1,3.24,2.176,4.862,3.259.111.072.226.13.395.226V33.9a.727.727,0,0,0-.38-.688c-1.608-1.059-3.206-2.133-4.814-3.2C26.213,29.97,26.1,29.908,25.924,29.8Z" transform="translate(-12.022 -10.541)" fill="#ea8d72"/>
</svg>
