<?xml version="1.0" encoding="UTF-8"?><svg id="a" xmlns="http://www.w3.org/2000/svg" viewBox="0 0 47.34 39.41"><defs><style>.b{fill:#ec1e3c;}</style></defs><path class="b" d="M29.12,38.05c-.41,.01-.59,.02-.78,.02-3.12,0-6.25,0-9.37,0-.18,0-.36-.03-.54-.05-.01,0-.03-.08-.02-.08,.19-.15,.39-.29,.58-.43,.55-.42,.94-.96,1.11-1.64,.05-.21,.08-.42,.09-.63,.02-.27,0-.55,0-.83,0-10.26,0-20.52,0-30.78,0-.21,0-.43,0-.64-.01-1.02-.44-1.83-1.26-2.43-.15-.11-.3-.21-.46-.31-.06-.04-.09-.09-.05-.15,.01-.02,.04-.05,.06-.05,.12-.01,.24-.03,.36-.03,3.19,0,6.37,0,9.56,0,.15,0,.3,.03,.45,.05,.01,0,.03,.06,.02,.08-.03,.05-.06,.1-.1,.14-.12,.09-.26,.17-.38,.26-.83,.6-1.21,1.43-1.27,2.44-.01,.21,0,.43,0,.64,0,10.29,0,20.58,0,30.88,0,.43,0,.85,.1,1.28,.17,.72,.54,1.29,1.12,1.74,.19,.15,.39,.28,.77,.55Z"/><path class="b" d="M15.19,19.72c0,.11-.04,.13-.11,.15-.35,.11-.7,.22-1.04,.34-.7,.24-1.36,.55-2,.92-.48,.28-.92,.61-1.32,.99-.88,.84-1.35,1.88-1.4,3.1-.01,.28,0,.55,0,.83,0,1.81,0,3.61,0,5.42,0,1.09-.19,2.13-.57,3.14-.13,.34-.27,.68-.44,1.01-1.01,1.9-2.59,3.05-4.67,3.54-1.14,.27-2.31,.27-3.47,.24-.05,0-.1-.05-.14-.09-.02-.01-.02-.06,0-.08,.03-.05,.08-.1,.12-.13,.2-.15,.4-.28,.59-.43,.91-.73,1.39-1.69,1.43-2.86,0-.31,0-.61,0-.92,0-2.17,0-4.35,0-6.52,0-1.02,.12-2.02,.43-2.98,.83-2.56,2.55-4.19,5.14-4.91,.41-.11,.83-.19,1.26-.25,.91-.13,1.81-.28,2.73-.33,.24-.01,.49-.04,.73-.07,.91-.13,1.83-.1,2.74-.11Z"/><path class="b" d="M32.16,19.83c.95-.1,1.9-.14,2.84,0,.18,.03,.37,.04,.55,.05,1.13,.05,2.25,.23,3.37,.42,.66,.11,1.31,.32,1.92,.59,1.96,.88,3.23,2.38,3.9,4.4,.26,.79,.43,1.6,.44,2.43,0,.31,0,.61,0,.92,0,2.14,0,4.29,0,6.43,0,.28,0,.55,.02,.83,.06,1.14,.55,2.05,1.43,2.76,.21,.17,.44,.33,.66,.49,.06,.04,.07,.1,.02,.16-.01,.02-.04,.04-.07,.05-.12,.02-.24,.04-.36,.04-.7-.02-1.41,0-2.11-.08-2.8-.33-4.88-1.68-6.02-4.32-.48-1.11-.73-2.27-.73-3.48,0-1.93,0-3.86,0-5.79,0-.34,0-.68-.04-1.01-.12-.91-.5-1.7-1.12-2.37-.44-.48-.95-.87-1.5-1.2-.79-.48-1.64-.83-2.51-1.11-.23-.08-.46-.15-.69-.22Z"/><path class="b" d="M32.6,18.28c.06-.06,.12-.15,.2-.18,.34-.13,.69-.24,1.04-.37,.95-.36,1.83-.86,2.6-1.52,1-.86,1.72-1.91,2.05-3.19,.11-.41,.19-.84,.23-1.26,.1-.97,.24-1.95,.21-2.93-.03-1.23-.15-2.45-.4-3.65-.29-1.4-1.04-2.54-2.16-3.42-.8-.63-1.71-1.07-2.68-1.38-.23-.07-.46-.12-.68-.25,.05-.04,.08-.1,.12-.1,1.22,0,2.45-.04,3.67,.04,1.87,.12,3.58,.77,5.08,1.92,1.35,1.04,2.23,2.42,2.7,4.06,.23,.83,.37,1.67,.38,2.53,.01,.95,0,1.9-.19,2.83-.33,1.63-1.01,3.07-2.27,4.21-.71,.64-1.54,1.11-2.43,1.46-.94,.37-1.91,.64-2.92,.77-.7,.09-1.39,.2-2.09,.3-.27,.04-.55,.04-.82,.06-.55,.03-1.1,.06-1.65,.09h0Z"/><path class="b" d="M14.73,18.29c-.4-.03-.79-.06-1.19-.07-1.5-.06-2.99-.27-4.45-.58-.93-.2-1.83-.51-2.67-.95-1.87-.97-3.1-2.48-3.65-4.5-.54-1.99-.56-4-.04-6,.56-2.15,1.82-3.79,3.76-4.89C7.81,.54,9.23,.09,10.76,.04c1.13-.04,2.27-.02,3.4-.03,.05,0,.1,.04,.19,.08-.1,.05-.17,.1-.24,.12-.46,.17-.92,.32-1.38,.5-.66,.27-1.26,.63-1.81,1.08-1.22,.99-1.94,2.26-2.19,3.81-.14,.85-.21,1.7-.28,2.56-.04,.43-.04,.86-.02,1.29,.06,1.07,.14,2.14,.34,3.2,.21,1.11,.72,2.08,1.48,2.91,.68,.76,1.51,1.34,2.42,1.8,.58,.29,1.18,.51,1.79,.71,.12,.04,.22,.09,.27,.22h0Z"/></svg>