<svg xmlns="http://www.w3.org/2000/svg" viewBox="0 0 22.86 23.72"><defs><style>.cls-1{fill:#2a4153;}</style></defs><g id="Layer_2" data-name="Layer 2"><g id="Layer_1-2" data-name="Layer 1"><path id="_7506090_share_sharing_data_file_icon" data-name=" 7506090 share sharing data file icon" class="cls-1" d="M18.6,14.83a4.11,4.11,0,0,0-2,.52,4.37,4.37,0,0,0-1.53,1.43L8.23,13.53a4.64,4.64,0,0,0-.15-3.6l5-3.08A4.21,4.21,0,0,0,15.48,8.7a4,4,0,0,0,3-.23,4.29,4.29,0,0,0,2.1-2.2,4.57,4.57,0,0,0,.21-3.09A4.44,4.44,0,0,0,19,.7,4.09,4.09,0,0,0,16.05.05a4.18,4.18,0,0,0-2.61,1.48,4.55,4.55,0,0,0-1,2.91c0,.16,0,.32,0,.48L6.82,8.35A4.19,4.19,0,0,0,4.6,7.48,4.09,4.09,0,0,0,2.28,8,4.33,4.33,0,0,0,.57,9.69a4.61,4.61,0,0,0,.19,4.75A4.23,4.23,0,0,0,2.6,16,4.07,4.07,0,0,0,5,16.29,4.15,4.15,0,0,0,7.1,15.22l7.28,3.45a4.08,4.08,0,0,0,0,.61,4.47,4.47,0,0,0,.72,2.46A4.23,4.23,0,0,0,17,23.38a4.14,4.14,0,0,0,2.46.25,4.19,4.19,0,0,0,2.18-1.21,4.5,4.5,0,0,0,1.17-2.28,4.66,4.66,0,0,0-.24-2.56,4.49,4.49,0,0,0-1.57-2A4.27,4.27,0,0,0,18.6,14.83Z"/></g></g></svg>