<svg xmlns="http://www.w3.org/2000/svg" viewBox="0 0 55.24 46.55"><defs><style>.cls-1{fill:#2a4153;}</style></defs><g id="Layer_2" data-name="Layer 2"><g id="Layer_1-2" data-name="Layer 1"><path id="Path_231" data-name="Path 231" class="cls-1" d="M45.86,1A3.35,3.35,0,0,0,41.13.92L41,1a3,3,0,0,0-1.21,2.77V43.09a3.46,3.46,0,1,0,6.92,0V11.77l2.6,2.6a3.36,3.36,0,0,0,4.73.11l.11-.11a3.51,3.51,0,0,0,.18-4.85Z"/><path id="Path_232" data-name="Path 232" class="cls-1" d="M31.15,38.07H3.46a3.46,3.46,0,0,0,0,6.92H31.15a3.46,3.46,0,1,0,0-6.92Z"/><path id="Path_233" data-name="Path 233" class="cls-1" d="M31.15,10.38H3.46a3.46,3.46,0,0,0,0,6.92H31.15a3.46,3.46,0,1,0,0-6.92Z"/><path id="Path_234" data-name="Path 234" class="cls-1" d="M3.46,31.15H27.69a3.46,3.46,0,1,0,0-6.92H3.46a3.46,3.46,0,0,0,0,6.92Z"/></g></g></svg>