<svg xmlns="http://www.w3.org/2000/svg" width="15.844" height="15.234" viewBox="0 0 15.844 15.234">
  <g id="trash" transform="translate(1.092 0.695)">
    <path id="Rectangle_771" data-name="Rectangle 771" d="M-.391-1h9.75a.609.609,0,0,1,.609.609V11.8a.609.609,0,0,1-.609.609H-.391A.609.609,0,0,1-1,11.8V-.391A.609.609,0,0,1-.391-1ZM8.75.219H.219V11.188H8.75Z" transform="translate(2.346 2.133)" fill="#2a4153"/>
    <path id="Line_37" data-name="Line 37" d="M14.234.219H-.391A.609.609,0,0,1-1-.391.609.609,0,0,1-.391-1H14.234a.609.609,0,0,1,.609.609A.609.609,0,0,1,14.234.219Z" transform="translate(-0.092 2.133)" fill="#2a4153"/>
    <path id="Line_38" data-name="Line 38" d="M2.047.219H-.391A.609.609,0,0,1-1-.391.609.609,0,0,1-.391-1H2.047a.609.609,0,0,1,.609.609A.609.609,0,0,1,2.047.219Z" transform="translate(6.002 0.305)" fill="#2a4153"/>
    <path id="Line_39" data-name="Line 39" d="M-.391,5.7A.609.609,0,0,1-1,5.094V-.391A.609.609,0,0,1-.391-1a.609.609,0,0,1,.609.609V5.094A.609.609,0,0,1-.391,5.7Z" transform="translate(6.002 5.18)" fill="#2a4153"/>
    <path id="Line_40" data-name="Line 40" d="M-.391,5.7A.609.609,0,0,1-1,5.094V-.391A.609.609,0,0,1-.391-1a.609.609,0,0,1,.609.609V5.094A.609.609,0,0,1-.391,5.7Z" transform="translate(8.439 5.18)" fill="#2a4153"/>
  </g>
</svg>
