<svg width="35.52" height="35.46" xmlns="http://www.w3.org/2000/svg"><g><path d="M26.62 10.638c0 2.822-.934 5.528-2.596 7.523-1.663 1.995-3.918 3.115-6.269 3.115a7.928 7.928 0 0 1-5.252-2.068 9.551 9.551 0 0 1-1.016-1.047 11.485 11.485 0 0 1-2.465-5.694 12.713 12.713 0 0 1-.132-1.829c0-2.821.934-5.527 2.597-7.522C13.149 1.12 15.404 0 17.755 0a7.928 7.928 0 0 1 5.253 2.068c.365.323.704.673 1.016 1.048a11.485 11.485 0 0 1 2.465 5.694c.087.605.132 1.216.131 1.828zM3.756 35.456H31.77a3.821 3.821 0 0 0 2.63-1.035c1.062-1.001 1.498-2.587.739-4.106a14.62 14.62 0 0 0-4.232-5.011 18.587 18.587 0 0 0-4.28-2.436 4.85 4.85 0 0 0-1.102-.23c-.614-.054-1.227.016-1.754.238a2.652 2.652 0 0 0-.335.17 10.54 10.54 0 0 1-5.673 1.595 10.597 10.597 0 0 1-3.23-.477 11.371 11.371 0 0 1-2.444-1.119c-.887-.355-2.128-.532-3.191 0-1.924.773-3.701 1.87-5.254 3.244a14.223 14.223 0 0 0-3.257 4.203c-.958 1.78-.014 3.771 1.69 4.586.525.25 1.098.38 1.679.378z" fill="#2a4153" fill-rule="evenodd"/></g></svg>