<svg xmlns="http://www.w3.org/2000/svg" viewBox="0 0 44.75 44.73"><defs><style>.cls-1{fill:#ea8d72;}</style></defs><g id="Layer_2" data-name="Layer 2"><g id="Layer_1-2" data-name="Layer 1"><g id="Group_441" data-name="Group 441"><g id="icons"><g id="user"><ellipse id="Ellipse_68" data-name="Ellipse 68" class="cls-1" cx="22.39" cy="13.42" rx="11.18" ry="13.42"/><path id="Path_229" data-name="Path 229" class="cls-1" d="M44.31,38.24a20.36,20.36,0,0,0-10.73-9.39,5,5,0,0,0-4,.22,13.74,13.74,0,0,1-14.31,0,5,5,0,0,0-4,0A20.4,20.4,0,0,0,.48,38.46c-1.56,2.91.9,6.26,4.25,6.26H40.06a4.52,4.52,0,0,0,4.69-4.36A4.45,4.45,0,0,0,44.31,38.24Z"/></g></g></g></g></g></svg>