<svg xmlns="http://www.w3.org/2000/svg" width="280.057" height="59.925" viewBox="0 0 280.057 59.925">
  <g id="Group_2053" data-name="Group 2053" transform="translate(-812 -1750.5)">
    <path id="Path_621" data-name="Path 621" d="M8,0H269.611a8,8,0,0,1,8,8V49.479a8,8,0,0,1-8,8H8a8,8,0,0,1-8-8V8A8,8,0,0,1,8,0Z" transform="translate(813.223 1751.723)" fill="#ea8d72" opacity="0.59"/>
    <path id="Path_951" data-name="Path 951" d="M-64.674-25.128-71.694,0h-5.94L-82.35-17.892-87.282,0l-5.9.036-6.768-25.164h5.4l4.428,19.512,5.112-19.512H-79.4l4.824,19.4,4.464-19.4Zm9.432,4.068v6.3h8.46v4h-8.46V-4.1h9.54V0h-14.58V-25.164H-45.7v4.1Zm24.012-4.068a15.009,15.009,0,0,1,6.966,1.548,11.059,11.059,0,0,1,4.644,4.41,13.137,13.137,0,0,1,1.638,6.642A12.938,12.938,0,0,1-19.62-5.922a11.125,11.125,0,0,1-4.644,4.374A15.009,15.009,0,0,1-31.23,0h-8.784V-25.128Zm-.18,20.844a8.277,8.277,0,0,0,6.12-2.16,8.227,8.227,0,0,0,2.16-6.084,8.416,8.416,0,0,0-2.16-6.138,8.16,8.16,0,0,0-6.12-2.214h-3.564v16.6ZM-4.3-25.128A15.009,15.009,0,0,1,2.664-23.58a11.059,11.059,0,0,1,4.644,4.41,13.137,13.137,0,0,1,1.638,6.642A12.938,12.938,0,0,1,7.308-5.922,11.125,11.125,0,0,1,2.664-1.548,15.009,15.009,0,0,1-4.3,0h-8.784V-25.128Zm-.18,20.844a8.277,8.277,0,0,0,6.12-2.16A8.227,8.227,0,0,0,3.8-12.528a8.416,8.416,0,0,0-2.16-6.138,8.16,8.16,0,0,0-6.12-2.214H-8.046v16.6ZM18.882-25.128V0h-5.04V-25.128ZM46.458,0h-5.04L30.006-17.244V0h-5.04V-25.164h5.04L41.418-7.884v-17.28h5.04Zm23.58-17.568a5.9,5.9,0,0,0-2.376-2.412,7.231,7.231,0,0,0-3.528-.828,7.713,7.713,0,0,0-3.96,1.008,6.962,6.962,0,0,0-2.7,2.88A9.243,9.243,0,0,0,56.5-12.6a9.265,9.265,0,0,0,.99,4.392,7.009,7.009,0,0,0,2.754,2.88,8.128,8.128,0,0,0,4.1,1.008,7.119,7.119,0,0,0,4.716-1.53,7.3,7.3,0,0,0,2.412-4.266h-8.64v-3.852H76.446v4.392a11.8,11.8,0,0,1-2.16,4.86A12.2,12.2,0,0,1,70.02-1.134,12.543,12.543,0,0,1,64.17.216,13.245,13.245,0,0,1,57.6-1.422a11.918,11.918,0,0,1-4.608-4.554A13.064,13.064,0,0,1,51.318-12.6a13.163,13.163,0,0,1,1.674-6.642A11.882,11.882,0,0,1,57.6-23.814a13.173,13.173,0,0,1,6.534-1.638,13.075,13.075,0,0,1,7.38,2.07,10.57,10.57,0,0,1,4.32,5.814ZM89.982.252a11.935,11.935,0,0,1-4.734-.9,7.773,7.773,0,0,1-3.33-2.592,6.825,6.825,0,0,1-1.26-4h5.4a3.492,3.492,0,0,0,1.1,2.448,3.89,3.89,0,0,0,2.718.9,4.181,4.181,0,0,0,2.772-.846,2.751,2.751,0,0,0,1.008-2.214,2.558,2.558,0,0,0-.684-1.836,4.793,4.793,0,0,0-1.71-1.134,28.3,28.3,0,0,0-2.826-.918,30.266,30.266,0,0,1-3.978-1.422,6.968,6.968,0,0,1-2.628-2.124,6.053,6.053,0,0,1-1.1-3.8,6.791,6.791,0,0,1,1.116-3.888,7.1,7.1,0,0,1,3.132-2.538,11.4,11.4,0,0,1,4.608-.882A10,10,0,0,1,95.9-23.6a7.007,7.007,0,0,1,2.682,5.274H93.042a2.88,2.88,0,0,0-1.1-2.142,4.137,4.137,0,0,0-2.718-.846,3.5,3.5,0,0,0-2.358.756,2.733,2.733,0,0,0-.882,2.2,2.27,2.27,0,0,0,.666,1.674,5.079,5.079,0,0,0,1.656,1.08q.99.414,2.79.954a29.311,29.311,0,0,1,4,1.44,7.176,7.176,0,0,1,2.664,2.16,6,6,0,0,1,1.116,3.78A7.11,7.11,0,0,1,97.83-3.528,7.37,7.37,0,0,1,94.77-.774,10.437,10.437,0,0,1,89.982.252Z" transform="translate(935.007 1794.169)" fill="#2a4153"/>
    <g id="Rectangle_1888" data-name="Rectangle 1888" transform="translate(812 1750.5)" fill="none" stroke="#2a4153" stroke-width="1" stroke-dasharray="2">
      <rect width="280.057" height="59.925" rx="8" stroke="none"/>
      <rect x="0.5" y="0.5" width="279.057" height="58.925" rx="7.5" fill="none"/>
    </g>
    <g id="copy-svgrepo-com" transform="translate(1060.21 1766.742)">
      <path id="Path_617" data-name="Path 617" d="M65.9,0H51V20.61h4.346V4.966H65.9Z" transform="translate(-51)" fill="#2a4153"/>
      <path id="Path_618" data-name="Path 618" d="M306,125v4.346h4.346Z" transform="translate(-290.17 -117.24)" fill="#2a4153"/>
      <path id="Path_619" data-name="Path 619" d="M158.76,117.139V110H151v20.61h14.9V117.139Z" transform="translate(-144.792 -103.171)" fill="#2a4153"/>
    </g>
  </g>
</svg>
