<svg xmlns="http://www.w3.org/2000/svg" width="110.313" height="53.073" viewBox="0 0 110.313 53.073">
  <g id="Group_2313" data-name="Group 2313" transform="translate(-1398 -563)">
    <g id="Group_2320" data-name="Group 2320" transform="translate(1398 563)">
      <g id="Group_2313-2" data-name="Group 2313" transform="translate(0 0)">
        <g id="Group_2309" data-name="Group 2309" transform="translate(0 0)">
          <g id="Group_2301" data-name="Group 2301" transform="translate(0 0)">
            <path id="Path_900" data-name="Path 900" d="M1168.057,193.218V157.8H1278.37v35.413l-31.849-.082c.039-.187-.02-2.886-.851-3.254-.929-.412.164-1.5-5.314-1.846-6.7-.01-5.974,4.061-11.466,5.511-1.916-.268-3.977-2.13-5.892-2.4-2.023.306-3.9,2.206-5.923,2.512-.8-.32.241-.495-1.657-.918a27,27,0,0,0-2.336-2.05c-.908-.187-4.409-2.588-6.842-2.739a9.408,9.408,0,0,0-4.292.73,4.937,4.937,0,0,0-2.181,4.453Z" transform="translate(-1168.057 -157.805)" fill="#fff8f3" fill-rule="evenodd" opacity="0.39"/>
            <g id="Group_2300" data-name="Group 2300" transform="translate(0 0)">
              <g id="Group_2298" data-name="Group 2298" transform="translate(4.111 4.111)">
                <path id="Path_901" data-name="Path 901" d="M1184.638,174.386V201.84h27.733V201.7h-27.226V174.522h101.078V201.7h-27.451v.136h27.958V174.386Z" transform="translate(-1184.638 -174.386)" fill="#b07746"/>
              </g>
              <g id="Group_2299" data-name="Group 2299">
                <path id="Path_902" data-name="Path 902" d="M1168.057,157.805V193.48H1199.9v-.492h-30.323V158.3h107.272v34.692H1246.3v.492h32.069V157.805Z" transform="translate(-1168.057 -157.805)" fill="#b07746"/>
              </g>
              <path id="Path_903" data-name="Path 903" d="M1309.851,584.431a5.432,5.432,0,0,1-1.567-.028c-.131-.02-.258-.057-.388-.084s-.254-.078-.379-.125a3.253,3.253,0,0,1-.363-.171l-.176-.1-.167-.115a2.564,2.564,0,0,1-.581-.569,2.194,2.194,0,0,1-.367-.74,2.006,2.006,0,0,1,.241-1.625,2.762,2.762,0,0,1,1.27-1.048,4.892,4.892,0,0,1,1.581-.368l.4-.016.059,0,.049,0,.1,0,.195.007a7.073,7.073,0,0,1,.8.07,3.785,3.785,0,0,1,.4.063l.392.075c.259.059.515.127.772.194a21.361,21.361,0,0,1,2.949,1.128c.954.437,1.885.916,2.807,1.406,1.842.982,3.66,1.995,5.507,2.938a42.213,42.213,0,0,0,5.691,2.453,26.035,26.035,0,0,0,2.98.8,19.669,19.669,0,0,0,3.054.36l.384.013.192.006.1,0h.088l.779-.019.752-.066c.25-.041.5-.071.752-.12a7.54,7.54,0,0,0,1.453-.451,5.4,5.4,0,0,0,1.31-.776l.287-.253c.091-.089.173-.186.261-.279a4.017,4.017,0,0,0,.449-.618c.059-.113.13-.22.181-.337l.147-.353c.039-.121.069-.245.1-.367a3.65,3.65,0,0,0,.066-.375,3.523,3.523,0,0,0-.126-1.5c-.044-.118-.074-.241-.129-.354s-.106-.228-.166-.339l-.2-.316c-.073-.1-.158-.194-.236-.291a4.233,4.233,0,0,0-1.178-.9,5.516,5.516,0,0,0-1.41-.464,3.468,3.468,0,0,0-.37-.052c-.124-.012-.246-.035-.371-.038l-.374-.012-.186-.007-.188.008a6.906,6.906,0,0,0-.749.055l-.374.043-.087.01-.1.016-.193.033a17.083,17.083,0,0,0-5.674,2.159,33.022,33.022,0,0,0-4.97,3.674c-1.566,1.362-3.047,2.826-4.621,4.215a20.764,20.764,0,0,1-2.517,1.93,7.578,7.578,0,0,1-3.018,1.2,4.787,4.787,0,0,1-1.67-.067,2.915,2.915,0,0,1-1.51-.808,1.791,1.791,0,0,1-.439-.79,1.434,1.434,0,0,1,.071-.9,1.688,1.688,0,0,1,.543-.68,2.566,2.566,0,0,1,.738-.382,3.619,3.619,0,0,1,.394-.1l.049-.012c.033-.006.037-.005.057-.009l.1-.013.193-.027.1-.013.1,0,.206,0a2.706,2.706,0,0,1,.4.026,4.1,4.1,0,0,1,1.513.506,8.209,8.209,0,0,1,2.337,2.11,15.124,15.124,0,0,1,.913,1.282c.283.441.554.891.8,1.351a27.069,27.069,0,0,1,1.357,2.844h0l.035.073-.053.115-1.652,3.594-.545,1.187-.55-1.186L1317,598.5l-.055-.119.036-.076h0a27.475,27.475,0,0,1,1.36-2.843c.25-.461.521-.91.8-1.352a15.13,15.13,0,0,1,.913-1.282,8.232,8.232,0,0,1,2.336-2.115,4.115,4.115,0,0,1,1.516-.51,2.651,2.651,0,0,1,.4-.027l.2,0,.1,0,.1.013c.135.02.268.029.406.058a3.518,3.518,0,0,1,.394.1,2.6,2.6,0,0,1,.749.38,1.72,1.72,0,0,1,.559.689,1.553,1.553,0,0,1,.115.455,1.579,1.579,0,0,1-.035.474,1.814,1.814,0,0,1-.445.815,2.962,2.962,0,0,1-1.537.826l-.052.012-.026.006a.372.372,0,0,1-.039.008l-.1.016-.193.032c-.144.012-.3.032-.436.033a4.981,4.981,0,0,1-.844-.047,6.2,6.2,0,0,1-1.594-.459,9.41,9.41,0,0,1-1.421-.778,21.009,21.009,0,0,1-2.479-1.975c-1.546-1.416-3.031-2.874-4.6-4.238q-.59-.509-1.191-1t-1.229-.949a26.965,26.965,0,0,0-2.58-1.7,17.156,17.156,0,0,0-5.7-2.121,8.826,8.826,0,0,0-2.985-.047,5.675,5.675,0,0,0-1.412.457,4.221,4.221,0,0,0-1.182.9,3.48,3.48,0,0,0-.864,2.806,3.642,3.642,0,0,0,.5,1.434,2.486,2.486,0,0,0,.209.321,2.34,2.34,0,0,0,.238.3c.087.094.169.192.26.281l.286.255a5.4,5.4,0,0,0,1.3.8,7.349,7.349,0,0,0,1.456.467,11.081,11.081,0,0,0,3.058.176c.263,0,.516-.032.769-.057s.507-.043.762-.083.509-.066.762-.108l.758-.14a26,26,0,0,0,2.981-.8,42.625,42.625,0,0,0,5.69-2.458c1.849-.939,3.658-1.969,5.5-2.944.922-.489,1.853-.968,2.807-1.4a21.346,21.346,0,0,1,2.95-1.127c.257-.067.513-.135.772-.194l.392-.075a3.793,3.793,0,0,1,.395-.063,7.018,7.018,0,0,1,.8-.07c.136,0,.262-.014.408-.011l.39.015a4.831,4.831,0,0,1,1.589.364,2.8,2.8,0,0,1,1.276,1.047,2.082,2.082,0,0,1,.3.793,2.13,2.13,0,0,1-.05.841,2.2,2.2,0,0,1-.369.744,2.571,2.571,0,0,1-.584.571,3.488,3.488,0,0,1-1.476.6,5.458,5.458,0,0,1-1.57.027.012.012,0,0,1,0-.024,5.9,5.9,0,0,0,1.539-.146,3.523,3.523,0,0,0,1.363-.642,2.308,2.308,0,0,0,.5-.542,1.913,1.913,0,0,0,.289-.662,1.809,1.809,0,0,0,.019-.708,1.742,1.742,0,0,0-.269-.652,2.433,2.433,0,0,0-1.125-.876,4.588,4.588,0,0,0-1.447-.309,9.064,9.064,0,0,0-3.01.419,20.885,20.885,0,0,0-2.867,1.139c-.934.442-1.851.928-2.762,1.427-1.821,1-3.631,2.038-5.494,2.99a40.423,40.423,0,0,1-5.774,2.487,26.512,26.512,0,0,1-3.055.8l-.78.133c-.261.039-.524.065-.786.1s-.528.048-.793.064-.532.035-.79.03a11.2,11.2,0,0,1-3.148-.346,7.966,7.966,0,0,1-1.486-.564,6.078,6.078,0,0,1-1.321-.879,4.956,4.956,0,0,1-1.008-1.221c-.062-.117-.134-.229-.186-.351l-.152-.368c-.04-.127-.074-.255-.111-.382s-.051-.261-.077-.391a3.993,3.993,0,0,1,.788-3.029,4.808,4.808,0,0,1,1.205-1.088,5.773,5.773,0,0,1,.73-.368l.189-.079a1.218,1.218,0,0,1,.192-.069l.392-.116a3.861,3.861,0,0,1,.4-.088c.134-.023.267-.059.4-.071l.406-.037.2-.018.206,0a6.484,6.484,0,0,1,.811.022l.389.034.111.01.1.014.2.028a13.867,13.867,0,0,1,3.08.851,17.549,17.549,0,0,1,2.823,1.458,36.18,36.18,0,0,1,4.943,3.888c1.554,1.393,3.05,2.85,4.672,4.141a20.756,20.756,0,0,0,2.518,1.767,10.745,10.745,0,0,0,1.346.665,6.4,6.4,0,0,0,1.407.38,4.788,4.788,0,0,0,.714.038c.121,0,.227-.013.343-.018l.194-.025.1-.012.074-.014a2.506,2.506,0,0,0,1.228-.53,1.267,1.267,0,0,0,.36-.5.973.973,0,0,0,.02-.605,1.575,1.575,0,0,0-.97-.927,3.121,3.121,0,0,0-.355-.119c-.116-.03-.244-.046-.365-.07l-.092-.017-.094,0-.187-.008a2.062,2.062,0,0,0-.375.017,3.859,3.859,0,0,0-1.428.463,5.772,5.772,0,0,0-1.231.906,10.483,10.483,0,0,0-1.035,1.143,16.622,16.622,0,0,0-1.636,2.629c-.235.461-.448.933-.65,1.409s-.389.961-.545,1.445h0l-.019-.194,2.365,3.174h-1.1l2.365-3.171-.019.187h0c-.157-.484-.346-.97-.547-1.445s-.416-.948-.651-1.409a16.747,16.747,0,0,0-1.636-2.63,10.5,10.5,0,0,0-1.034-1.146,5.8,5.8,0,0,0-1.231-.91,3.873,3.873,0,0,0-1.432-.468,2,2,0,0,0-.373-.017l-.184.007-.092,0-.1.016-.193.032-.1.016-.04.007-.045.012a3.285,3.285,0,0,0-.355.116,1.612,1.612,0,0,0-1,.934,1.017,1.017,0,0,0,.011.63,1.275,1.275,0,0,0,.365.529,2.54,2.54,0,0,0,1.255.548,4.571,4.571,0,0,0,1.438.024,6.166,6.166,0,0,0,1.412-.4,10.419,10.419,0,0,0,1.338-.687,20.945,20.945,0,0,0,2.481-1.812c1.594-1.318,3.093-2.769,4.65-4.164a35.436,35.436,0,0,1,4.973-3.867,15.5,15.5,0,0,1,5.928-2.272l.193-.027.1-.014.107-.01.4-.034a7.546,7.546,0,0,1,.811-.017l.2,0,.2.018.406.04c.135.014.268.048.4.072a3.746,3.746,0,0,1,.4.088,6.006,6.006,0,0,1,1.506.625,4.791,4.791,0,0,1,1.21,1.084,3.9,3.9,0,0,1,.709,1.443,4.089,4.089,0,0,1,.081,1.591,4.138,4.138,0,0,1-.53,1.495,5.031,5.031,0,0,1-1,1.228,7,7,0,0,1-2.8,1.478c-.257.07-.519.121-.78.182-.265.043-.533.074-.8.111-.262.021-.52.035-.781.048l-.049,0h-.157l-.2,0-.4,0a19.647,19.647,0,0,1-3.146-.354,26.457,26.457,0,0,1-3.056-.8,40.749,40.749,0,0,1-5.774-2.492c-1.865-.947-3.666-2-5.491-3-.911-.5-1.828-.984-2.762-1.426a20.9,20.9,0,0,0-2.868-1.138c-.247-.067-.493-.136-.741-.2l-.374-.076a3.378,3.378,0,0,0-.373-.065,6.582,6.582,0,0,0-.757-.076l-.195-.01-.1,0-.049,0h-.038l-.378.01a4.517,4.517,0,0,0-1.455.305,2.471,2.471,0,0,0-1.13.875,1.739,1.739,0,0,0-.269.655,1.844,1.844,0,0,0,.015.713,1.913,1.913,0,0,0,.291.666,2.338,2.338,0,0,0,.5.544,3.559,3.559,0,0,0,1.368.646A5.893,5.893,0,0,0,1309.851,584.431Z" transform="translate(-1264.122 -550.209)" fill="#b07746"/>
            </g>
          </g>
        </g>
      </g>
      <g id="Group_2319" data-name="Group 2319" transform="translate(9.191 10.504)">
        <g id="Group_2314" data-name="Group 2314" transform="translate(0 0)">
          <path id="Path_928" data-name="Path 928" d="M-879.619,1246.383v3.781h2.959v1.871h-2.959v3.971h3.666v1.871h-5.69v-13.366h5.69v1.871Z" transform="translate(881.643 -1244.321)" fill="#c8252b"/>
          <path id="Path_929" data-name="Path 929" d="M-844.718,1257.878h-2.139l-1.661-4.7h-.038l-1.566,4.7h-2.1l2.558-6.931-2.406-6.435h2.138l1.489,4.258h.038l1.432-4.258h2.1l-2.406,6.511Z" transform="translate(859.515 -1244.321)" fill="#c8252b"/>
          <path id="Path_930" data-name="Path 930" d="M-816.538,1246.422v11.456h-2.024v-11.456h-2.157v-1.91h6.339v1.91Z" transform="translate(835.821 -1244.321)" fill="#c8252b"/>
          <path id="Path_931" data-name="Path 931" d="M-787.8,1252.226h-.935v5.652h-2.024v-13.366h2.921a3.029,3.029,0,0,1,3.36,3.38v.955a3.119,3.119,0,0,1-1.432,2.94l1.852,6.091H-786.2Zm-.935-1.871h.821c.974,0,1.413-.515,1.413-1.642v-.687c0-1.127-.439-1.642-1.413-1.642h-.821Z" transform="translate(813.288 -1244.321)" fill="#c8252b"/>
          <path id="Path_932" data-name="Path 932" d="M-755.584,1257.878l-.439-3.036h-2.234l-.439,3.036h-2.024l2.31-13.366h2.578l2.31,13.366Zm-2.406-4.869h1.7l-.821-5.632h-.057Z" transform="translate(790.695 -1244.321)" fill="#c8252b"/>
          <path id="Path_933" data-name="Path 933" d="M-713.029,1257.878v-10.272h-2.788v-1.413c1.623-.115,2.979-.668,3.4-1.681h1.413v13.366Z" transform="translate(756.923 -1244.321)" fill="#c8252b"/>
          <path id="Path_934" data-name="Path 934" d="M-683.057,1246.422h-3.685l-.172,3.15h.038a2.013,2.013,0,0,1,1.585-.592c1.68,0,2.731,1.184,2.731,3.284v2.52a2.988,2.988,0,0,1-3.227,3.284,2.948,2.948,0,0,1-3.227-3.208v-.516l1.947-.1v.363c0,1.088.42,1.585,1.222,1.585.84,0,1.26-.554,1.26-1.546V1252.4c0-.993-.439-1.547-1.26-1.547a1.133,1.133,0,0,0-1.2,1.127l-.019.267-1.871-.077.42-7.657h5.461Z" transform="translate(736.764 -1244.321)" fill="#c8252b"/>
          <path id="Path_935" data-name="Path 935" d="M-654.428,1245.843v2.9a1.921,1.921,0,0,1-2.043,2.1,1.921,1.921,0,0,1-2.043-2.1v-2.9a1.921,1.921,0,0,1,2.043-2.1A1.921,1.921,0,0,1-654.428,1245.843Zm-2.9,11.647,6.339-13.747h1.26l-6.339,13.747Zm.191-11.647v2.9c0,.573.229.859.668.859s.668-.286.668-.859v-2.9c0-.573-.229-.859-.668-.859S-657.139,1245.271-657.139,1245.843Zm8.592,6.644v2.9a1.921,1.921,0,0,1-2.043,2.1,1.921,1.921,0,0,1-2.043-2.1v-2.9a1.921,1.921,0,0,1,2.043-2.1A1.922,1.922,0,0,1-648.547,1252.488Zm-2.711,0v2.9c0,.573.229.859.668.859s.668-.286.668-.859v-2.9c0-.573-.229-.859-.668-.859S-651.258,1251.915-651.258,1252.488Z" transform="translate(713.824 -1243.743)" fill="#c8252b"/>
          <path id="Path_936" data-name="Path 936" d="M-591.369,1247.123v6.988a3.071,3.071,0,0,1-3.265,3.38,3.071,3.071,0,0,1-3.265-3.38v-6.988a3.071,3.071,0,0,1,3.265-3.38A3.071,3.071,0,0,1-591.369,1247.123Zm-4.506.019v6.95c0,.993.439,1.528,1.241,1.528s1.241-.535,1.241-1.528v-6.95c0-.993-.439-1.527-1.241-1.527S-595.875,1246.149-595.875,1247.142Z" transform="translate(668.235 -1243.743)" fill="#c8252b"/>
          <path id="Path_937" data-name="Path 937" d="M-561.6,1246.383v3.781h2.864v1.871H-561.6v5.842h-2.024v-13.366h5.594v1.871Z" transform="translate(642.457 -1244.321)" fill="#c8252b"/>
          <path id="Path_938" data-name="Path 938" d="M-533.642,1246.383v3.781h2.864v1.871h-2.864v5.842h-2.024v-13.366h5.594v1.871Z" transform="translate(621.428 -1244.321)" fill="#c8252b"/>
        </g>
        <g id="Group_2315" data-name="Group 2315" transform="translate(7.446)">
          <path id="Path_939" data-name="Path 939" d="M-850.792,1255.258c.526-.454,1.066-.882,1.6-1.325a14.166,14.166,0,0,0,1.6-1.688q.425-.491.881-.95l-.1-.272,2.406-6.511h-2.1l-1.432,4.258h-.038l-1.489-4.258h-2.139l2.406,6.435Z" transform="translate(851.606 -1244.321)" fill="#b07746"/>
          <path id="Path_940" data-name="Path 940" d="M-818.562,1247.889a14.842,14.842,0,0,1,2.024-.742v-.725h2.158v-1.91h-6.339v1.91h2.157Z" transform="translate(828.375 -1244.321)" fill="#b07746"/>
          <path id="Path_941" data-name="Path 941" d="M-788.735,1246.6v-.219h.821a1.244,1.244,0,0,1,1.182.557l.1.025c.673.19,1.318.478,1.975.715l.177.064a3.006,3.006,0,0,0-3.355-3.232h-2.921v2.081A14.357,14.357,0,0,1-788.735,1246.6Z" transform="translate(805.842 -1244.321)" fill="#b07746"/>
          <path id="Path_942" data-name="Path 942" d="M-753.316,1249.371c.189.108.374.224.557.344l.341-2.338h.057l.426,2.919c.749.567,1.46,1.2,2.164,1.8l-1.31-7.579h-2.578l-.744,4.305C-754.034,1248.986-753.671,1249.168-753.316,1249.371Z" transform="translate(778.498 -1244.321)" fill="#b07746"/>
          <path id="Path_943" data-name="Path 943" d="M-713.029,1257.878v-10.272h-2.788v-1.413c1.623-.115,2.979-.668,3.4-1.68h1.413v13.366Z" transform="translate(749.477 -1244.321)" fill="#b07746"/>
          <path id="Path_944" data-name="Path 944" d="M-683.057,1246.422h-3.685l-.172,3.15h.038a2.012,2.012,0,0,1,1.585-.592c1.68,0,2.731,1.184,2.731,3.284v2.52a2.988,2.988,0,0,1-3.227,3.284,2.947,2.947,0,0,1-3.227-3.208v-.516l1.947-.1v.363c0,1.088.42,1.584,1.222,1.584.84,0,1.26-.553,1.26-1.546V1252.4c0-.993-.439-1.546-1.26-1.546a1.133,1.133,0,0,0-1.2,1.127l-.019.267-1.871-.077.42-7.656h5.461Z" transform="translate(729.318 -1244.321)" fill="#b07746"/>
          <path id="Path_945" data-name="Path 945" d="M-654.428,1245.842v2.9a1.921,1.921,0,0,1-2.043,2.1,1.921,1.921,0,0,1-2.043-2.1v-2.9a1.921,1.921,0,0,1,2.043-2.1A1.921,1.921,0,0,1-654.428,1245.842Zm-2.9,11.647,6.339-13.748h1.26l-6.339,13.748Zm.191-11.647v2.9c0,.573.229.859.668.859s.668-.287.668-.859v-2.9c0-.573-.229-.859-.668-.859S-657.139,1245.269-657.139,1245.842Zm8.592,6.645v2.9a1.921,1.921,0,0,1-2.043,2.1,1.921,1.921,0,0,1-2.043-2.1v-2.9a1.921,1.921,0,0,1,2.043-2.1A1.922,1.922,0,0,1-648.547,1252.487Zm-2.711,0v2.9c0,.573.229.859.668.859s.668-.286.668-.859v-2.9c0-.573-.229-.859-.668-.859S-651.258,1251.914-651.258,1252.487Z" transform="translate(706.379 -1243.742)" fill="#b07746"/>
          <path id="Path_946" data-name="Path 946" d="M-591.369,1247.122v6.988a3.072,3.072,0,0,1-3.265,3.38,3.071,3.071,0,0,1-3.265-3.38v-6.988a3.071,3.071,0,0,1,3.265-3.38A3.071,3.071,0,0,1-591.369,1247.122Zm-4.506.019v6.95c0,.993.439,1.527,1.241,1.527s1.241-.534,1.241-1.527v-6.95c0-.993-.439-1.527-1.241-1.527S-595.875,1246.148-595.875,1247.141Z" transform="translate(660.789 -1243.742)" fill="#b07746"/>
          <path id="Path_947" data-name="Path 947" d="M-561.6,1246.383v3.781h2.864v1.871H-561.6v5.843h-2.024v-13.366h5.594v1.871Z" transform="translate(635.011 -1244.321)" fill="#b07746"/>
          <path id="Path_948" data-name="Path 948" d="M-533.642,1246.383v3.781h2.864v1.871h-2.864v5.843h-2.024v-13.366h5.594v1.871Z" transform="translate(613.983 -1244.321)" fill="#b07746"/>
        </g>
        <path id="Path_949" data-name="Path 949" d="M-804.012,1265.337a12.418,12.418,0,0,1-5.075,1.262,18.689,18.689,0,0,1-5.353-.466,22.537,22.537,0,0,1-5.8-2.261,31.631,31.631,0,0,1-3.939-2.462c-.852-.615-1.287-.987-2.3-1.805-2.493-2.021-4.138-3.354-5.745-4.432a30.573,30.573,0,0,0-5.145-2.766,15.625,15.625,0,0,0-2.077-.681,15.091,15.091,0,0,0-3.72-.471,14.826,14.826,0,0,0-3.365.434q-.657.162-1.3.385a17.412,17.412,0,0,0-2.729,1.214c-.282.156-.748.424-1.34.823a25.822,25.822,0,0,0-3.629,3.031c-1.158,1.124-2.14,2.2-3.722,3.58a1.259,1.259,0,0,1-.267.16,2.442,2.442,0,0,1-.956.164c-.264.017-.49.029-.667.038a1.475,1.475,0,0,0,.065,1.7.77.77,0,0,0,.374.17,4.957,4.957,0,0,0,1.662-.918,9.79,9.79,0,0,0,1.028-1.076c.23-.268.333-.408.477-.586a18.166,18.166,0,0,1,1.447-1.461c.853-.861,1.575-1.521,2.035-1.93a19.748,19.748,0,0,1,2.075-1.657,15.9,15.9,0,0,1,7.729-3.042,12.971,12.971,0,0,1,2.023-.01,12.192,12.192,0,0,1,2.124.277,12.234,12.234,0,0,1,1.572.46,2.463,2.463,0,0,1,.443.129c.826.366,1.665.707,2.47,1.116a37.658,37.658,0,0,1,4.38,2.709c.744.516,1.186.925,1.725,1.37a68.136,68.136,0,0,0,7.117,5.4,24.549,24.549,0,0,0,5.278,2.6,16.738,16.738,0,0,0,7.464.964,14.69,14.69,0,0,0,5.984-2.029.846.846,0,0,0,.1-.085A1.393,1.393,0,0,0-804.012,1265.337Z" transform="translate(866.394 -1249.393)" fill="#c8252b"/>
      </g>
    </g>
  </g>
</svg>
