<?xml version="1.0" encoding="utf-8"?>
<!-- Generator: Adobe Illustrator 26.2.0, SVG Export Plug-In . SVG Version: 6.00 Build 0)  -->
<svg version="1.1" id="Layer_1" xmlns="http://www.w3.org/2000/svg" xmlns:xlink="http://www.w3.org/1999/xlink" x="0px" y="0px"
	 viewBox="0 0 62 62" style="enable-background:new 0 0 62 62;" xml:space="preserve">
<style type="text/css">
	.st0{fill-rule:evenodd;clip-rule:evenodd;fill:#FFFFFF;}
	.st1{fill-rule:evenodd;clip-rule:evenodd;fill:#CFD8DC;}
	.st2{fill-rule:evenodd;clip-rule:evenodd;fill:#40C351;}
</style>
<path class="st0" d="M1.6,60.7l4.1-15.1c-2.6-4.4-3.9-9.5-3.9-14.6C1.8,14.8,14.9,1.7,31,1.7c7.8,0,15.1,3,20.7,8.6
	c5.5,5.5,8.5,12.9,8.5,20.7c0,16.1-13.1,29.2-29.2,29.2c0,0,0,0,0,0h0c-4.9,0-9.7-1.2-14-3.6L1.6,60.7z"/>
<path class="st0" d="M1.6,61.4c-0.2,0-0.4-0.1-0.5-0.2c-0.2-0.2-0.3-0.5-0.2-0.7l4.1-14.8c-2.5-4.5-3.8-9.5-3.8-14.7
	c0-16.5,13.5-30,30-30c8,0,15.5,3.1,21.2,8.8C57.9,15.4,61,22.9,61,31c0,16.5-13.5,30-30,30c-4.9,0-9.8-1.2-14.1-3.5l-15.2,4
	C1.7,61.4,1.7,61.4,1.6,61.4z"/>
<path class="st1" d="M31,1.7c7.8,0,15.1,3,20.7,8.6c5.5,5.5,8.5,12.9,8.5,20.7c0,16.1-13.1,29.2-29.2,29.2h0c-4.9,0-9.7-1.2-14-3.6
	L1.6,60.7l4.1-15.1c-2.6-4.4-3.9-9.5-3.9-14.6C1.8,14.8,14.9,1.7,31,1.7 M31,60.2L31,60.2L31,60.2 M31,60.2L31,60.2L31,60.2 M31,0.2
	L31,0.2C14.1,0.2,0.3,14,0.3,30.9c0,5.2,1.3,10.3,3.8,14.8l-4,14.5c-0.1,0.5,0,1.1,0.4,1.5c0.3,0.3,0.7,0.5,1.1,0.5
	c0.1,0,0.3,0,0.4-0.1l14.9-3.9c4.4,2.3,9.2,3.5,14.1,3.5c17,0,30.8-13.8,30.8-30.7c0-8.2-3.2-15.9-9-21.7C47,3.4,39.3,0.2,31,0.2
	L31,0.2z"/>
<path class="st2" d="M48.2,13.8C43.6,9.2,37.5,6.7,31,6.7C17.7,6.7,6.8,17.6,6.8,30.9c0,4.6,1.3,9,3.7,12.9l0.6,0.9l-2.5,9l9.2-2.4
	l0.9,0.5c3.7,2.2,8,3.4,12.4,3.4h0c13.4,0,24.3-10.9,24.3-24.3C55.3,24.5,52.8,18.4,48.2,13.8z"/>
<path class="st0" d="M23.7,18.7c-0.5-1.2-1.1-1.2-1.6-1.3c-0.4,0-0.9,0-1.4,0s-1.3,0.2-1.9,0.9c-0.7,0.7-2.6,2.5-2.6,6.1
	s2.6,7.1,3,7.5c0.4,0.5,5,8.1,12.5,11c6.2,2.4,7.4,1.9,8.8,1.8c1.3-0.1,4.3-1.8,4.9-3.5c0.6-1.7,0.6-3.2,0.4-3.5
	c-0.2-0.3-0.7-0.5-1.4-0.9s-4.3-2.1-5-2.4c-0.7-0.2-1.2-0.4-1.6,0.4c-0.5,0.7-1.9,2.4-2.3,2.9c-0.4,0.5-0.9,0.5-1.6,0.2
	c-0.7-0.4-3.1-1.1-5.9-3.6c-2.2-1.9-3.6-4.3-4.1-5.1c-0.4-0.7,0-1.1,0.3-1.5c0.3-0.3,0.7-0.9,1.1-1.3c0.4-0.4,0.5-0.7,0.7-1.2
	c0.2-0.5,0.1-0.9-0.1-1.3C25.8,23.8,24.4,20.2,23.7,18.7z"/>
</svg>
