<svg xmlns="http://www.w3.org/2000/svg" width="29.982" height="29.982" viewBox="0 0 29.982 29.982">
  <g id="noun_Heart_2102871_1_" data-name="noun_Heart_2102871 (1)" transform="translate(-6 -6)" fill="none">
    <path d="M27.223,6a8.415,8.415,0,0,0-6.232,2.823A8.415,8.415,0,0,0,14.76,6C9.93,6,6,10.266,6,15.509c0,7.654,13.589,19.656,14.167,20.164a1.25,1.25,0,0,0,1.631.014c.579-.491,14.183-12.11,14.183-20.178C35.982,10.266,32.053,6,27.223,6Z" stroke="none"/>
    <path d="M 14.75967788696289 8 C 11.03250885009766 8 8.000240325927734 11.36831092834473 8.000240325927734 15.50853157043457 C 8.000240325927734 18.12681198120117 10.26634788513184 22.19496154785156 14.38112831115723 26.9636116027832 C 17.09701347351074 30.11105728149414 19.8945140838623 32.72826385498047 20.99912643432617 33.73199462890625 C 22.10855484008789 32.75428771972656 24.8966236114502 30.21783447265625 27.60159873962402 27.12258148193359 C 29.52047729492188 24.92684173583984 31.03866958618164 22.86626052856445 32.11400985717773 20.99807167053223 C 33.35356903076172 18.84457206726074 33.98207855224609 16.99762153625488 33.98207855224609 15.50849151611328 C 33.98209762573242 13.47633171081543 33.25779724121094 11.57093048095703 31.94260787963867 10.14327049255371 C 30.66937828063965 8.761161804199219 28.99312973022461 8 27.22263717651367 8 C 25.43034934997559 8 23.74266815185547 8.770229339599609 22.47046852111816 10.16882133483887 L 20.99094772338867 11.79532051086426 L 19.5114688873291 10.16877174377441 C 18.2393684387207 8.770221710205078 16.55181884765625 8 14.75967788696289 8 M 14.75967788696289 6 C 17.12914848327637 6 19.3614387512207 7.031490325927734 20.99098777770996 8.823032379150391 C 22.62118911743164 7.030879974365234 24.8531379699707 6 27.22263717651367 6 C 32.05250930786133 6 35.98211669921875 10.26565170288086 35.98207855224609 15.50851058959961 C 35.98207855224609 23.57621192932129 22.37784767150879 35.19528198242188 21.79866790771484 35.68630981445312 C 21.3260669708252 36.08538818359375 20.63250160217285 36.07948303222656 20.16754913330078 35.67234039306641 C 19.58895874023438 35.16484069824219 6.000240325927734 23.16205215454102 6.000240325927734 15.50853157043457 C 6.000240325927734 10.26565170288086 9.9298095703125 6 14.75967788696289 6 Z" stroke="none" fill="#ea8d72"/>
  </g>
</svg>
