<svg xmlns="http://www.w3.org/2000/svg" width="20.376" height="20.377" viewBox="0 0 20.376 20.377">
  <g id="noun_Heart_2102871_1_" data-name="noun_Heart_2102871 (1)" transform="translate(-6 -6)" fill="none">
    <path d="M20.424,6a5.719,5.719,0,0,0-4.235,1.919A5.719,5.719,0,0,0,11.953,6,6.231,6.231,0,0,0,6,12.462c0,5.2,9.235,13.359,9.628,13.7a.849.849,0,0,0,1.109.009c.394-.334,9.639-8.23,9.639-13.713A6.231,6.231,0,0,0,20.424,6Z" stroke="none"/>
    <path d="M 11.95339584350586 7.999992370605469 C 9.773616790771484 7.999992370605469 8.000236511230469 10.00175285339355 8.000236511230469 12.46225357055664 C 8.000236511230469 13.03383255004883 8.20472526550293 14.06734275817871 9.178945541381836 15.74507331848145 C 9.891006469726562 16.97133255004883 10.90112686157227 18.34531402587891 12.18122673034668 19.82883262634277 C 13.72239875793457 21.61490249633789 15.30144882202148 23.14545822143555 16.20022201538086 23.98254013061523 C 17.09922790527344 23.1685962677002 18.66810989379883 21.68518447875977 20.19863510131836 19.93383407592773 C 23.83390617370605 15.77406311035156 24.37670516967773 13.46714210510254 24.37670516967773 12.46222305297852 C 24.37671661376953 11.24242210388184 23.94465637207031 10.10164260864258 23.16011619567871 9.250003814697266 C 22.41753578186035 8.443923950195312 21.44567489624023 7.999992370605469 20.42355728149414 7.999992370605469 C 19.38818740844727 7.999992370605469 18.40951538085938 8.449033737182617 17.6678352355957 9.264392852783203 L 16.18831634521484 10.89088249206543 L 14.70884704589844 9.264352798461914 C 13.96722602844238 8.44902229309082 12.98865699768066 7.999992370605469 11.95339584350586 7.999992370605469 M 11.95339584350586 5.999992370605469 C 13.56374549865723 5.999992370605469 15.08086585998535 6.701032638549805 16.18835639953613 7.918603897094727 C 17.29628562927246 6.700613021850586 18.81317520141602 5.999992370605469 20.42355728149414 5.999992370605469 C 23.7060661315918 5.999992370605469 26.37673568725586 8.899053573608398 26.37670516967773 12.46224212646484 C 26.37670516967773 17.94526290893555 17.13090515136719 25.84189224243164 16.73727607727051 26.17561340332031 C 16.41607284545898 26.44684600830078 15.9447078704834 26.44281959533691 15.62872695922852 26.16612243652344 C 15.23549652099609 25.82121276855469 6.000236511230469 17.66379165649414 6.000236511230469 12.46225357055664 C 6.000236511230469 8.899053573608398 8.670886993408203 5.999992370605469 11.95339584350586 5.999992370605469 Z" stroke="none" fill="#2a4153"/>
  </g>
</svg>
